<?xml version="1.0" encoding="UTF-8" standalone="no"?>
<svg
   xmlns:dc="http://purl.org/dc/elements/1.1/"
   xmlns:cc="http://creativecommons.org/ns#"
   xmlns:rdf="http://www.w3.org/1999/02/22-rdf-syntax-ns#"
   xmlns:svg="http://www.w3.org/2000/svg"
   xmlns="http://www.w3.org/2000/svg"
   xmlns:sodipodi="http://sodipodi.sourceforge.net/DTD/sodipodi-0.dtd"
   xmlns:inkscape="http://www.inkscape.org/namespaces/inkscape"
   inkscape:version="1.0 (4035a4fb49, 2020-05-01)"
   sodipodi:docname="paper.svg"
   id="svg8"
   xml:space="preserve"
   enable-background="new 0 0 90 90"
   viewBox="0 0 90 90"
   y="0px"
   x="0px"
   version="1.1"
   width="90"
   height="90"><metadata
     id="metadata14"><rdf:RDF><cc:Work
         rdf:about=""><dc:format>image/svg+xml</dc:format><dc:type
           rdf:resource="http://purl.org/dc/dcmitype/StillImage" /><dc:title /></cc:Work></rdf:RDF></metadata><defs
     id="defs12" /><sodipodi:namedview
     inkscape:current-layer="svg8"
     inkscape:window-maximized="1"
     inkscape:window-y="-9"
     inkscape:window-x="-9"
     inkscape:cy="44.005102"
     inkscape:cx="45"
     inkscape:zoom="6.5333333"
     showgrid="false"
     id="namedview10"
     inkscape:window-height="1001"
     inkscape:window-width="1920"
     inkscape:pageshadow="2"
     inkscape:pageopacity="0"
     guidetolerance="10"
     gridtolerance="10"
     objecttolerance="10"
     borderopacity="1"
     bordercolor="#666666"
     pagecolor="#ffffff"
     inkscape:document-rotation="0" /><path
     id="path2"
     d="m 68.805286,19.84154 c -1.106,-0.189 -2.15,-0.168 -3.128,0.064 -0.04,-1.452 -0.108,-2.907 -0.208,-4.362 v -0.016 c -0.182,-2.154 -1.068,-3.938999 -2.661,-5.356999 -1.641,-1.4629997 -3.55,-2.1219997 -5.728,-1.9719997 -1.719,0.115 -3.215,0.708 -4.49,1.7789996 -0.113,-0.8129996 -0.228,-1.3649996 -0.337,-1.6519996 l -0.015,-0.032 c -0.849,-2.272 -2.313,-4.01 -4.396,-5.2130001 l -0.016,-0.015 c -2.252,-1.323 -4.696,-1.414 -7.33,-0.273 h 0.017 c -2.679,1.0630001 -4.303,3.3670001 -4.875,6.9130001 v -0.032 c -0.099,0.5189997 -0.172,1.0899997 -0.225,1.7159997 -0.236,-0.152 -0.489,-0.291 -0.753,-0.417 l -0.033,-0.016 c -1.94,-0.879 -3.922,-0.9810001 -5.95,-0.305 -0.012,0.006 -0.029,0.011 -0.047,0.016 -2.021,0.734 -3.513,2.027999 -4.474,3.880999 v -0.016 c -0.919,1.615 -1.245,3.877 -0.979,6.783 h -0.016 c 0.172,2.112 2.09,10.863 5.757,26.255 -0.075,-0.043 -0.15,-0.085 -0.224,-0.128 h 0.016 c -1.881,-1.11 -3.949,-1.96 -6.207,-2.551 l 0.016,0.016 c -2.521,-0.703 -5.209001,-0.457 -8.066,0.738 -3.391,1.386 -4.846,3.984 -4.363,7.794 v 0.018 c 0.361,3.669 2.793,6.043 7.296999,7.119 2.872001,0.679 4.775001,1.353 5.709001,2.021 l 0.017,0.016 c 0.843,0.742 1.741,1.955 2.694,3.641 0.005,0.012 0.009,0.022 0.016,0.032 1.314,2.41 3.313,4.287 5.998,5.629 h -0.016 c 0.792,0.407 1.604,0.765 2.438,1.075 -0.867,1.336 -1.257,2.501 -1.171,3.496 -0.13,3.317 1.831,5.968 5.885,7.955 l -0.016,-0.017 c 2.762,1.398 5.825,2.308 9.19,2.727 h 0.017 c 3.398,0.408 6.81,0.033 10.231,-1.122 l 0.017,-0.017 c 4.034,-1.293 6.138,-4.545 6.301,-9.75 0.012,-0.277 -0.026,-0.532 -0.111,-0.771 7.77,-4.415 9.989,-13.257 6.657,-26.527 2.176,-6.684 3.603,-13.575 4.281,-20.673 v -0.015 c 0.193,-2.01 -0.369,-3.838 -1.685,-5.485 -1.323,-1.647 -3.001,-2.631 -5.034,-2.95 z m -1.972,28.323 c -0.138,0.42 -0.149,0.843 -0.034,1.267 3.413,13.039 0.593,20.988 -8.467,23.848 -0.584,0.172 -1.022,0.524 -1.315,1.059 -0.292,0.538 -0.351,1.1 -0.177,1.685 0.17,0.583 0.523,1.021 1.06,1.314 0.537,0.293 1.099,0.352 1.683,0.178 0.199,-0.056 0.396,-0.115 0.594,-0.178 -0.332,2.283 -1.405,3.786 -3.224,4.508 l 0.017,-0.017 c -2.773,0.938 -5.537,1.249 -8.292,0.931 -2.835,-0.351 -5.419,-1.109 -7.746,-2.277 l -0.017,-0.017 c -2.149,-1.052 -3.289,-2.377 -3.417,-3.978 0.111,-0.569 0.56,-1.328 1.349,-2.277 0.325,0.056 0.651,0.104 0.977,0.145 0.605,0.075 1.15,-0.075 1.637,-0.449 0.481,-0.377 0.759,-0.869 0.834,-1.476 0.077,-0.605 -0.074,-1.15 -0.449,-1.635 -0.377,-0.482 -0.869,-0.76 -1.475,-0.835 -2.346,-0.288 -4.527,-0.95 -6.543,-1.988 h -0.017 c -1.837,-0.918 -3.212,-2.196 -4.122,-3.835 l -0.015,-0.03 c -1.302,-2.308 -2.554,-3.942 -3.753,-4.908 l -0.016,-0.017 c -1.168,-1.034 -3.666,-2.001 -7.491001,-2.902 -2.290999,-0.547 -3.601999,-1.675 -3.928999,-3.384 v -0.016 c -0.197,-1.527 0.358,-2.58 1.669,-3.16 1.847999,-0.771 3.585,-0.955 5.213,-0.545 l 0.015,0.017 c 1.848,0.479 3.543,1.168 5.084,2.068 h 0.016 c 1.898,1.107 3.576,1.787 5.036,2.037 0.044,0.014 0.086,0.024 0.127,0.032 0.083,0.015 0.17,0.025 0.257,0.031 0.706,0.051 2.027,0.028 3.961,-0.063 h 0.032 c 1.522,-0.056 3.43,0.414 5.726,1.411 v 0.016 c 2.246,1.016 4.067,2.957 5.47,5.822 0.268,0.547 0.689,0.921 1.267,1.123 0.573,0.202 1.136,0.17 1.683,-0.096 0.55,-0.27 0.924,-0.692 1.124,-1.269 0.201,-0.571 0.169,-1.133 -0.097,-1.683 -1.938,-3.978 -4.496,-6.635 -7.683,-7.972 v 0.017 c -3.077,-1.349 -5.649,-1.947 -7.713,-1.797 h -0.032 c -0.711,0.033 -1.327,0.055 -1.844,0.064 -3.945,-16.499 -6.014,-25.834 -6.207,-28.002 h -0.017 c -0.161,-1.841 0.004,-3.279 0.498,-4.315 v -0.016 c 0.442,-0.828 1.114,-1.41 2.02,-1.748 0.017,-0.005 0.032,-0.011 0.048,-0.016 0.896,-0.287 1.773,-0.238 2.631,0.144 0.011,0.006 0.022,0.011 0.033,0.017 0.787,0.382 1.331,0.98 1.636,1.795 l -0.016,-0.015 c 0.48,1.325 0.918,2.662 1.314,4.009 0.01,0.041 0.021,0.083 0.033,0.128 0.074,0.209 0.249,0.792 0.528,1.749 0.008,0.047 0.019,0.096 0.033,0.144 1.35,4.628 2.606,10.803 3.769,18.523 0.089,0.608 0.377,1.094 0.866,1.46 0.496,0.361 1.046,0.495 1.652,0.401 0.6,-0.088 1.082,-0.378 1.444,-0.866 0.36,-0.491 0.493,-1.037 0.4,-1.636 -1.184,-7.938 -2.466,-14.295 -3.849,-19.068 -0.814,-5.014 -1.019,-8.741 -0.609,-11.178999 v -0.032 c 0.283,-1.7599997 1.031,-2.9409997 2.245,-3.5449997 h 0.017 c 1.215,-0.526 2.342,-0.511 3.384,0.048 l -0.02,-0.014 c 1.159,0.672 1.979,1.64 2.454,2.903 0.513,1.6139997 1.206,11.7079987 2.086,30.2789987 -0.002,0.026 -0.002,0.053 0,0.08 0.025,0.596 0.26,1.098 0.706,1.507 0.445,0.415 0.97,0.612 1.571,0.594 0.604,-0.021 1.119,-0.25 1.539,-0.69 0.418,-0.436 0.62,-0.956 0.61,-1.556 0,-0.027 0,-0.053 0,-0.08 -0.235,-14.926 -0.374,-22.784 -0.418,-23.576 v -0.032 c -0.067,-0.95 0.198,-1.784 0.801,-2.502 l 0.017,-0.016 c 0.637,-0.724 1.429,-1.12 2.375,-1.187 0.944,-0.065 1.773,0.219 2.486,0.85 0.709,0.632 1.105,1.429 1.186,2.389 0.105,1.502 0.182,3.005 0.226,4.507 0.019,1.065 0.031,2.161 0.031,3.288 -0.009,0.104 -0.009,0.212 0,0.321 -0.007,5.433 -0.387,11.67 -1.138,18.715 -0.065,0.605 0.096,1.145 0.48,1.621 0.381,0.478 0.873,0.751 1.475,0.818 0.604,0.064 1.145,-0.096 1.62,-0.481 0.477,-0.381 0.751,-0.873 0.817,-1.476 0.74,-6.907 1.13,-13.061 1.171,-18.459 0.015,-0.009 0.031,-0.02 0.049,-0.033 0.672,-0.469 1.442,-0.628 2.31,-0.481 h 0.016 c 0.918,0.151 1.677,0.601 2.277,1.348 0.563,0.702 0.814,1.477 0.754,2.326 -0.671,6.971 -2.104,13.733 -4.297,20.288 z" /><path
     id="path830"
     d="m 47.973744,82.582969 c -5.20367,-0.854993 -9.310006,-2.943582 -10.159232,-5.167249 -0.325033,-0.851088 -0.259907,-1.200916 0.410245,-2.203677 l 0.499733,-0.747757 1.147959,-0.07783 c 0.631378,-0.04281 1.306619,-0.167737 1.500537,-0.277626 1.301585,-0.737571 1.25003,-3.220244 -0.08117,-3.908632 -0.236995,-0.122555 -1.081097,-0.335033 -1.875783,-0.472174 -3.111464,-0.53695 -6.253901,-1.93744 -7.953649,-3.544702 -0.683437,-0.646251 -1.320322,-1.477487 -1.998101,-2.607844 -1.176636,-1.962317 -2.440123,-3.591872 -3.378777,-4.357707 -1.297686,-1.058762 -3.31153,-1.898701 -6.580097,-2.744444 -3.646701,-0.943586 -4.908773,-2.001811 -4.928845,-4.132751 -0.01708,-1.81295 1.201097,-2.75715 4.146848,-3.214198 1.929866,-0.29943 4.060561,0.344571 8.337882,2.520114 3.229983,1.642845 3.768965,1.771773 7.408936,1.772261 2.589864,3.06e-4 3.020066,0.03879 4.314447,0.385564 3.757239,1.006586 5.912609,2.684633 7.856311,6.116472 0.83516,1.474578 1.223132,1.792229 2.293988,1.878195 0.665321,0.05341 0.905562,6.12e-4 1.345633,-0.296054 0.645158,-0.434838 1.070867,-1.224772 1.071192,-1.987667 4.59e-4,-1.121221 -1.892344,-4.167484 -3.746192,-6.029045 -1.54798,-1.55442 -2.609578,-2.247975 -4.825,-3.152235 -2.780932,-1.135084 -3.864513,-1.3805 -6.57499,-1.489149 L 33.839815,48.75 33.183358,45.994898 C 30.691186,35.535448 28.271814,24.70654 27.848683,22.117347 c -0.363048,-2.221536 -0.248328,-4.220298 0.30742,-5.356208 0.892737,-1.824687 2.893161,-2.511084 4.67553,-1.604294 1.154142,0.587176 1.461632,1.210125 2.831317,5.736012 1.551043,5.125153 2.708059,10.31036 3.82522,17.142857 0.655409,4.008446 0.726703,4.257871 1.35334,4.734671 0.958503,0.729312 2.041365,0.696907 2.935137,-0.08783 0.865836,-0.760213 0.901199,-1.18248 0.376888,-4.50033 C 43.250129,32.465449 41.913112,25.89363 41.020048,22.780229 40.21052,19.958052 39.657787,13.49418 40.013829,11.013124 40.209713,9.6481192 40.736948,8.2774268 41.297109,7.6768816 41.821716,7.1144541 42.753877,6.708089 43.72048,6.6204405 c 0.748711,-0.067891 1.014303,-0.017276 1.719326,0.3276605 1.593326,0.7795417 2.555057,2.2886012 2.839168,4.45496 0.384944,2.935227 0.861403,10.022599 1.464413,21.783343 0.293668,5.727542 0.441189,7.653358 0.611484,7.982672 0.34703,0.671082 1.221094,1.135525 2.111728,1.122089 0.812974,-0.01226 1.310942,-0.286486 1.860678,-1.024639 0.365239,-0.490422 0.365694,-0.597363 0.07121,-16.759113 l -0.165621,-9.089525 0.436933,-0.854356 c 0.781694,-1.52848 2.54764,-2.233028 4.105668,-1.638012 0.845298,0.322822 1.808769,1.381205 2.063129,2.266366 0.126426,0.439956 0.212393,2.650597 0.266077,6.842105 0.09337,7.289804 -0.07412,10.922919 -0.892804,19.366352 -0.205652,2.120971 -0.133192,2.485847 0.640936,3.22751 0.605682,0.580278 1.959945,0.698173 2.697556,0.234833 0.881185,-0.553529 0.99658,-0.89515 1.289721,-3.818143 0.445718,-4.444367 0.755288,-9.072052 0.854593,-12.775089 l 0.09361,-3.490749 0.473204,-0.251714 c 0.673095,-0.358044 2.003105,-0.316711 2.790943,0.08673 0.847332,0.433909 1.667301,1.421769 1.879442,2.26426 0.139976,0.555895 0.111752,1.187921 -0.148267,3.320124 -0.635016,5.207233 -1.77154,10.551306 -3.349675,15.750568 -0.426672,1.405699 -0.775768,2.726079 -0.775768,2.934176 0,0.208097 0.170134,1.089866 0.378075,1.959488 1.790566,7.488225 1.303842,13.344588 -1.44059,17.333481 -1.405493,2.042815 -3.915095,3.835846 -6.788347,4.850061 -1.376235,0.48579 -1.963208,1.083118 -2.060626,2.096983 -0.09144,0.951588 0.262138,1.743355 0.975364,2.184153 0.412154,0.254724 0.711381,0.311222 1.431413,0.270269 0.902996,-0.05136 0.909592,-0.04869 0.818674,0.330877 -0.459266,1.917331 -1.516139,3.244727 -3.039127,3.817038 -2.438501,0.916344 -6.333269,1.289233 -8.959255,0.857768 z"
     style="opacity:0.540984;fill:#ffffff;stroke-width:0.153061" /><path
     id="path832"
     d="m 47.973744,82.582969 c -5.20367,-0.854993 -9.310006,-2.943582 -10.159232,-5.167249 -0.325033,-0.851088 -0.259907,-1.200916 0.410245,-2.203677 l 0.499733,-0.747757 1.147959,-0.07783 c 0.631378,-0.04281 1.306619,-0.167737 1.500537,-0.277626 1.301585,-0.737571 1.25003,-3.220244 -0.08117,-3.908632 -0.236995,-0.122555 -1.081097,-0.335033 -1.875783,-0.472174 -3.111464,-0.53695 -6.253901,-1.93744 -7.953649,-3.544702 -0.683437,-0.646251 -1.320322,-1.477487 -1.998101,-2.607844 -1.176636,-1.962317 -2.440123,-3.591872 -3.378777,-4.357707 -1.297686,-1.058762 -3.31153,-1.898701 -6.580097,-2.744444 -3.646701,-0.943586 -4.908773,-2.001811 -4.928845,-4.132751 -0.01708,-1.81295 1.201097,-2.75715 4.146848,-3.214198 1.929866,-0.29943 4.060561,0.344571 8.337882,2.520114 3.229983,1.642845 3.768965,1.771773 7.408936,1.772261 2.589864,3.06e-4 3.020066,0.03879 4.314447,0.385564 3.757239,1.006586 5.912609,2.684633 7.856311,6.116472 0.83516,1.474578 1.223132,1.792229 2.293988,1.878195 0.665321,0.05341 0.905562,6.12e-4 1.345633,-0.296054 1.182081,-0.796725 1.359138,-2.00661 0.524019,-3.58079 -2.016846,-3.801705 -4.417812,-6.100895 -7.862836,-7.529531 -2.713033,-1.125083 -4.041364,-1.429147 -6.73991,-1.542805 L 33.832342,48.75 33.179409,45.994898 C 30.520916,34.777159 28.269601,24.692997 27.848683,22.117347 c -0.363048,-2.221536 -0.248328,-4.220298 0.30742,-5.356208 0.892737,-1.824687 2.893161,-2.511084 4.67553,-1.604294 1.154142,0.587176 1.461632,1.210125 2.831317,5.736012 1.551043,5.125153 2.708059,10.31036 3.82522,17.142857 0.655409,4.008446 0.726703,4.257871 1.35334,4.734671 0.958503,0.729312 2.041365,0.696907 2.935137,-0.08783 0.864807,-0.75931 0.900943,-1.184498 0.380365,-4.475579 -0.911848,-5.764696 -2.111225,-11.68588 -3.065363,-15.133351 -0.886252,-3.202189 -1.44761,-9.483637 -1.07782,-12.060496 0.195884,-1.3650048 0.723119,-2.7356972 1.28328,-3.3362424 0.524607,-0.5624275 1.456768,-0.9687926 2.423371,-1.0564411 0.748711,-0.067891 1.014303,-0.017276 1.719326,0.3276605 1.593326,0.7795417 2.555057,2.2886012 2.839168,4.45496 0.381297,2.907415 0.853607,9.921091 1.466552,21.777889 0.268285,5.189731 0.445167,7.541226 0.594062,7.897582 0.507775,1.215277 2.354915,1.617788 3.434599,0.748435 0.860921,-0.693208 0.939254,-1.095141 0.858202,-4.403498 -0.03919,-1.599489 -0.144497,-7.20628 -0.234024,-12.459535 l -0.162778,-9.551373 0.435571,-0.851692 c 0.780277,-1.525709 2.547557,-2.229876 4.104306,-1.635349 0.845298,0.322822 1.808769,1.381205 2.063129,2.266366 0.126426,0.439956 0.212393,2.650597 0.266077,6.842105 0.09337,7.289804 -0.07412,10.922919 -0.892804,19.366352 -0.205652,2.120971 -0.133192,2.485847 0.640936,3.22751 0.605682,0.580278 1.959945,0.698173 2.697556,0.234833 1.008222,-0.633328 1.067669,-0.895395 1.566014,-6.903502 0.410444,-4.948395 0.623424,-8.770029 0.623424,-11.186518 v -1.968887 l 0.497449,-0.264251 c 0.697956,-0.370763 2.01401,-0.336079 2.815186,0.07419 0.847332,0.433909 1.667301,1.421769 1.879442,2.26426 0.139976,0.555895 0.111752,1.187921 -0.148267,3.320124 -0.635016,5.207233 -1.77154,10.551306 -3.349675,15.750568 -0.426672,1.405699 -0.775768,2.694445 -0.775768,2.86388 0,0.169434 0.203596,1.223398 0.452436,2.342141 0.875369,3.935532 1.146355,6.745243 0.919167,9.530385 -0.317753,3.895448 -1.520444,6.777425 -3.765003,9.021982 -1.44527,1.445272 -3.237633,2.535251 -5.457462,3.318818 -1.376235,0.48579 -1.963208,1.083118 -2.060626,2.096983 -0.09144,0.951588 0.262138,1.743355 0.975364,2.184153 0.412154,0.254724 0.711381,0.311222 1.431413,0.270269 0.902996,-0.05136 0.909592,-0.04869 0.818674,0.330877 -0.459266,1.917331 -1.516139,3.244727 -3.039127,3.817038 -2.438501,0.916344 -6.333269,1.289233 -8.959255,0.857768 z"
     style="opacity:0.540984;fill:#ffffff;stroke-width:0.153061;fill-opacity:1" /><path
     id="path834"
     d="M 47.973744,82.582969 C 42.738755,81.72283 38.66885,79.652771 37.814512,77.41572 37.489479,76.564632 37.554605,76.214804 38.224757,75.212043 l 0.499733,-0.747757 1.147959,-0.07653 c 1.233647,-0.08224 1.682634,-0.294868 2.163872,-1.024734 0.384974,-0.583869 0.377579,-1.806424 -0.01482,-2.449978 -0.404746,-0.663808 -0.90583,-0.89171 -2.605466,-1.185019 C 36.301765,69.19059 33.160433,67.790006 31.462386,66.181836 30.81141,65.565316 30.141285,64.702911 29.553761,63.72556 26.751778,59.064462 25.205,57.948099 19.505408,56.473328 15.850811,55.527699 14.596647,54.47283 14.57644,52.327605 c -0.01144,-1.21423 0.473443,-1.943868 1.667041,-2.50853 1.055253,-0.499215 3.089422,-0.880268 4.037127,-0.75626 1.425901,0.186582 3.767837,1.066517 6.472668,2.431976 3.582721,1.808638 4.043313,1.92347 7.716953,1.923963 2.589864,3.06e-4 3.020066,0.03879 4.314447,0.385564 3.751873,1.005147 5.951842,2.716144 7.839747,6.09726 0.794698,1.423254 1.276951,1.814624 2.34114,1.899943 0.631564,0.05064 0.880905,-0.006 1.315045,-0.29859 0.645158,-0.434838 1.070867,-1.224772 1.071192,-1.987667 4.59e-4,-1.080919 -1.942229,-4.213655 -3.732913,-6.019617 -1.417393,-1.429486 -2.7072,-2.284451 -4.685218,-3.105652 -2.70236,-1.121923 -4.034022,-1.426569 -6.732474,-1.54019 L 33.830969,48.75 32.799291,44.387755 C 30.232053,33.532702 28.276744,24.736708 27.848683,22.117347 c -0.363048,-2.221536 -0.248328,-4.220298 0.30742,-5.356208 0.892737,-1.824687 2.893161,-2.511084 4.67553,-1.604294 1.151718,0.585943 1.529034,1.356506 2.884293,5.890376 1.526668,5.107302 2.616559,9.983385 3.69459,16.52931 0.3466,2.104591 0.701235,4.051143 0.788077,4.325669 0.17476,0.552451 0.899477,1.180218 1.549862,1.342524 0.660194,0.164756 1.449417,-0.054 2.028192,-0.562174 0.864807,-0.75931 0.900943,-1.184498 0.380365,-4.475579 -0.90813,-5.741192 -2.055341,-11.408219 -3.045211,-15.042842 -0.917274,-3.368064 -1.47424,-9.529133 -1.098272,-12.148945 0.196154,-1.3668493 0.723165,-2.7374844 1.28358,-3.3383024 0.524607,-0.5624275 1.456768,-0.9687926 2.423371,-1.0564411 0.748711,-0.067891 1.014303,-0.017276 1.719326,0.3276605 0.99504,0.4868276 1.834179,1.3712592 2.331317,2.4571539 0.65679,1.4346191 1.090341,6.6546071 1.974712,23.7756951 0.268105,5.190434 0.444838,7.541179 0.593753,7.897582 0.622262,1.489282 2.934997,1.60406 3.981147,0.19758 0.372536,-0.50085 0.371862,-0.356707 0.07798,-16.693088 l -0.16491,-9.166977 0.436463,-0.853436 c 1.092011,-2.135258 3.812255,-2.485133 5.389575,-0.693202 0.994355,1.129646 1.011587,1.298829 1.011587,9.931611 0,7.762444 -0.06393,9.201264 -0.708509,15.94684 -0.17847,1.867701 -0.279322,3.575784 -0.224116,3.795743 0.05521,0.219958 0.329306,0.649732 0.609113,0.955054 0.455375,0.496901 0.603384,0.561224 1.411024,0.613208 0.708836,0.04562 1.007152,-0.0078 1.391417,-0.249179 1.008222,-0.633328 1.067669,-0.895395 1.566014,-6.903502 0.410444,-4.948395 0.623424,-8.770029 0.623424,-11.186518 v -1.968887 l 0.497449,-0.264251 c 0.697956,-0.370763 2.01401,-0.336079 2.815186,0.07419 0.8443,0.432357 1.667091,1.420935 1.877232,2.25548 0.132081,0.524539 0.117604,1.136887 -0.06402,2.70788 -0.646809,5.594837 -1.753716,10.854157 -3.462784,16.452964 -0.867995,2.843501 -0.857892,2.577782 -0.208125,5.475055 1.301048,5.801284 1.185104,10.76396 -0.335987,14.380897 -1.382154,3.286564 -4.190632,5.77707 -8.051451,7.139882 -1.376235,0.48579 -1.963208,1.083118 -2.060626,2.096983 -0.09171,0.95439 0.262527,1.743595 0.982267,2.188419 0.427413,0.264156 0.700462,0.313837 1.433472,0.260815 l 0.905487,-0.0655 -0.09372,0.392108 c -0.460261,1.925712 -1.515192,3.253051 -3.041186,3.826492 -2.438501,0.916344 -6.333269,1.289233 -8.959255,0.857768 z"
     style="opacity:0.540984;fill:#ffffff;fill-opacity:1;stroke-width:0.153061" /></svg>
