<?xml version="1.0" encoding="UTF-8" standalone="no"?>
<svg
   xmlns:dc="http://purl.org/dc/elements/1.1/"
   xmlns:cc="http://creativecommons.org/ns#"
   xmlns:rdf="http://www.w3.org/1999/02/22-rdf-syntax-ns#"
   xmlns:svg="http://www.w3.org/2000/svg"
   xmlns="http://www.w3.org/2000/svg"
   xmlns:sodipodi="http://sodipodi.sourceforge.net/DTD/sodipodi-0.dtd"
   xmlns:inkscape="http://www.inkscape.org/namespaces/inkscape"
   height="90"
   width="90"
   version="1.1"
   x="0px"
   y="0px"
   viewBox="0 0 90 90"
   enable-background="new 0 0 90 90"
   xml:space="preserve"
   id="svg8"
   sodipodi:docname="scissors.svg"
   inkscape:version="1.0 (4035a4fb49, 2020-05-01)"><metadata
     id="metadata14"><rdf:RDF><cc:Work
         rdf:about=""><dc:format>image/svg+xml</dc:format><dc:type
           rdf:resource="http://purl.org/dc/dcmitype/StillImage" /><dc:title /></cc:Work></rdf:RDF></metadata><defs
     id="defs12" /><sodipodi:namedview
     inkscape:document-rotation="0"
     pagecolor="#ffffff"
     bordercolor="#666666"
     borderopacity="1"
     objecttolerance="10"
     gridtolerance="10"
     guidetolerance="10"
     inkscape:pageopacity="0"
     inkscape:pageshadow="2"
     inkscape:window-width="1920"
     inkscape:window-height="1001"
     id="namedview10"
     showgrid="false"
     inkscape:zoom="6.5333333"
     inkscape:cx="45"
     inkscape:cy="45"
     inkscape:window-x="-9"
     inkscape:window-y="-9"
     inkscape:window-maximized="1"
     inkscape:current-layer="svg8" /><path
     d="m 4.8391739,53.886955 c 1.322,4.128 4.646,6.277 9.9750001,6.446 0.168,0.006 0.332,-0.005 0.49,-0.033 0.457,0.693 0.998,1.36 1.625,2.003 2.34,2.421 5.09,3.624 8.252,3.608 0.32,0.007 0.83,-0.048 1.525,-0.163 0.352,-0.057 0.576,-0.09 0.674,-0.099 0.063,0 0.121,0 0.18,0 0.564,1.052 1.357,2.106 2.379,3.166 l 0.016,0.016 c 2.459,2.563 5.133,3.82 8.023,3.773 2.523,-0.011 4.732,-0.715 6.627,-2.116 2.18,-1.603 3.23,-3.467 3.151,-5.594 0,-0.036 0,-0.075 0,-0.115 2.76,-0.092 5.275,-0.83 7.547,-2.214 l 0.017,-0.018 c 3.037,-1.905 4.509,-4.229 4.413,-6.972 0.018,-0.947 -0.135,-1.859 -0.46,-2.741 2.698,0.506 5.454,0.942 8.269,1.313 5.816,0.763 9.765,0.981 11.845,0.656 0.011,-0.006 0.022,-0.012 0.033,-0.017 2.698,-0.418 4.771,-1.922 6.218,-4.511 l -0.017,0.016 c 1.526,-2.55 1.494,-5.431 -0.099,-8.646 -1.287,-3.163 -5.454,-5.006 -12.501,-5.528 -0.082,-0.007 -0.165,-0.012 -0.246,-0.017 4.924,-1.519 7.921,-3.429 8.99,-5.725 l 0.017,-0.017 c 1.72,-3.199 1.954,-5.775 0.706,-7.726 -1.017,-1.889 -2.542,-3.189 -4.577,-3.905 h 0.032 c -1.733,-0.646 -3.706,-0.93 -5.923,-0.853 h -0.033 c -2.013,0.018 -6.038,1.063 -12.073,3.132 -4.726,1.618 -8.647,3.193 -11.764,4.726 -0.777,-1.395 -1.861,-2.815 -3.248,-4.265 -3.529,-3.685 -7.412,-5.504 -11.648,-5.464 -2.996,-0.079 -6.402,1.426 -10.221,4.512 -2.262,1.756 -4.152,4.462 -5.678,8.12 -0.92,-0.479 -1.844,-0.698 -2.771,-0.656 -3.387,-0.13 -6.1110001,1.876 -8.1700001,6.021 -1.4,2.843 -2.314,5.972 -2.74,9.385 -0.438,3.489 -0.05,6.989 1.165,10.502 z m 33.1880001,8.71 h 0.018 c 1.533,0.803 3.141,1.387 4.822,1.757 0.092,0.188 0.211,0.37 0.361,0.541 -0.078,0.715 -0.516,1.365 -1.313,1.953 -1.125,0.829 -2.436,1.238 -3.938,1.23 -1.697,-0.047 -3.283,-0.84 -4.758,-2.38 l -0.015,-0.015 c -1.363,-1.413 -2.08,-2.791 -2.15,-4.136 0,-0.806 0.201,-1.489 0.607,-2.051 l 0.016,-0.016 c 0.277,-0.334 0.615,-0.508 1.018,-0.524 0.188,-0.001 0.313,-0.001 0.377,0 0.02,0.004 0.035,0.01 0.051,0.017 h -0.066 c 0.256,0.126 0.514,0.203 0.771,0.229 0.947,1.284 2.347,2.415 4.199,3.395 z m -27.545,-26.592 c 1.092,-2.204 2.459,-3.369 4.102,-3.496 0.4,0.054 0.811,0.24 1.23,0.558 -0.332,1.15 -0.639,2.365 -0.92,3.643 -0.131,0.608 -0.027,1.177 0.313,1.706 0.336,0.53 0.807,0.864 1.41,1.001 0.609,0.132 1.18,0.028 1.707,-0.311 0.529,-0.336 0.863,-0.807 1.002,-1.412 1.453,-6.635 3.641,-11.19 6.561,-13.665 2.789,-2.252 5.244,-3.417 7.367,-3.496 3.025,0.046 5.814,1.402 8.367,4.069 v -0.017 c 1.619,1.693 2.707,3.329 3.264,4.905 0.006,0.017 0.012,0.033 0.018,0.049 0.17,0.608 0.26,1.215 0.262,1.821 0,1.042 -0.225,1.894 -0.672,2.56 -0.393,0.508 -0.947,0.749 -1.658,0.721 -1.072,-0.027 -2.051,-0.476 -2.936,-1.344 -1.441,-1.428 -2.496,-2.456 -3.166,-3.085 -0.09,-0.232 -0.229,-0.452 -0.41,-0.657 -0.389,-0.431 -0.871,-0.676 -1.443,-0.738 -0.578,-0.064 -1.104,0.073 -1.576,0.41 -0.469,0.344 -0.764,0.798 -0.885,1.362 -0.24,0.799 -0.119,1.904 0.359,3.313 0.014,0.015 0.023,0.032 0.033,0.05 0.242,0.658 0.379,1.139 0.41,1.443 -0.041,1.41 -0.631,2.87 -1.771,4.381 -1.049,1.382 -2.143,2.19 -3.281,2.428 -0.611,0.09 -1.105,0.385 -1.477,0.886 -0.381,0.505 -0.527,1.069 -0.443,1.69 0.09,0.611 0.385,1.104 0.887,1.477 0.506,0.379 1.068,0.527 1.689,0.442 2.23,-0.243 4.309,-1.644 6.234,-4.2 1.34,-1.771 2.182,-3.511 2.525,-5.217 1.596,1.281 3.346,1.91 5.25,1.887 2.256,-0.022 4.017,-0.864 5.283,-2.526 l 0.018,-0.033 c 1.038,-1.346 1.559,-3.097 1.559,-5.25 0.001,-0.425 -0.021,-0.852 -0.065,-1.279 3.044,-1.542 6.965,-3.133 11.763,-4.774 5.393,-1.855 8.969,-2.823 10.729,-2.905 h 0.032 c 1.578,-0.052 2.983,0.145 4.217,0.591 h 0.033 c 0.938,0.334 1.645,0.937 2.115,1.805 0.287,0.842 0.04,1.984 -0.737,3.429 l 0.017,-0.015 c -1.169,1.757 -4.439,3.255 -9.811,4.494 l 0.017,-0.016 c -6.342,1.437 -12.319,3.027 -17.933,4.774 -0.559,0.176 -0.985,0.521 -1.279,1.033 -0.3,0.512 -0.387,1.054 -0.263,1.624 0.134,0.572 0.445,1.025 0.937,1.363 0.481,0.341 1.012,0.472 1.591,0.393 8.668,-1.22 15.882,-1.629 21.639,-1.23 4.776,0.353 7.696,1.354 8.762,3.002 0.813,1.644 0.891,3.112 0.229,4.414 l -0.017,0.016 c -0.696,1.262 -1.687,2.011 -2.969,2.248 l 0.032,-0.018 c -1.856,0.244 -5.39,0.025 -10.598,-0.655 -5.378,-0.707 -10.54,-1.657 -15.486,-2.854 -0.46,-0.151 -0.941,-0.266 -1.445,-0.345 -0.041,-0.007 -0.078,-0.012 -0.113,-0.017 -0.202,-0.021 -0.416,-0.044 -0.641,-0.065 -0.62,-0.065 -1.174,0.099 -1.657,0.492 -0.483,0.396 -0.758,0.906 -0.819,1.526 -0.065,0.619 0.099,1.172 0.491,1.655 0.398,0.485 0.907,0.758 1.526,0.821 0.171,0.018 0.335,0.035 0.492,0.05 0.038,0.007 0.076,0.012 0.115,0.017 0.182,0.035 0.362,0.078 0.541,0.131 0.05,0.022 0.104,0.044 0.164,0.065 0.81,0.281 1.58,0.747 2.313,1.395 l 0.017,0.017 c 1.005,0.924 1.529,1.936 1.575,3.035 -0.095,1.193 -0.854,2.237 -2.281,3.134 l 0.018,-0.017 c -1.725,1.055 -3.649,1.579 -5.775,1.575 -2.531,0.005 -4.873,-0.553 -7.021,-1.674 h 0.016 c -2.066,-1.093 -3.154,-2.472 -3.264,-4.134 -0.018,-0.626 0.236,-1.08 0.754,-1.363 l -0.016,0.018 c 0.76,-0.372 1.75,-0.558 2.969,-0.558 0.422,0.051 1.309,0.335 2.658,0.853 0.016,0.006 0.031,0.013 0.049,0.016 1.311,0.539 2.104,0.894 2.379,1.066 0.475,0.413 1.021,0.599 1.641,0.558 0.62,-0.047 1.134,-0.31 1.542,-0.786 0.414,-0.474 0.599,-1.021 0.559,-1.641 -0.05,-0.619 -0.313,-1.133 -0.788,-1.542 -0.376,-0.394 -1.602,-1.017 -3.676,-1.87 -0.018,-0.005 -0.033,-0.01 -0.049,-0.017 -2.168,-0.831 -3.605,-1.218 -4.314,-1.165 -2.105,-0.002 -3.807,0.359 -5.102,1.083 l -0.018,0.017 c -2.055,1.112 -3.092,2.879 -3.117,5.298 -1.674,0.073 -3.08,0.813 -4.215,2.215 l -0.018,0.018 c -1.006,1.238 -1.541,2.753 -1.607,4.543 -0.162,0.021 -0.348,0.049 -0.559,0.082 h -0.016 c -0.354,0.06 -0.611,0.093 -0.771,0.099 -1.912,-0.015 -3.58,-0.759 -5.004,-2.23 -1.375,-1.408 -2.113,-3.005 -2.213,-4.79 -0.031,-0.626 -0.277,-1.149 -0.74,-1.575 -0.461,-0.424 -1.004,-0.62 -1.623,-0.591 -0.625,0.029 -1.15,0.275 -1.574,0.737 -0.424,0.462 -0.621,1.003 -0.592,1.624 0.016,0.379 0.049,0.751 0.098,1.117 -2.232,-0.364 -3.7090001,-1.453 -4.4280001,-3.265 -0.975,-2.833 -1.285,-5.653 -0.938,-8.465 0.359,-2.889 1.13,-5.536 2.3100001,-7.942 z"
     id="path2" /><path
     id="path830"
     d="m 23.494898,61.064804 c -1.195765,-0.332945 -2.339914,-1.068805 -3.37225,-2.168867 -1.101758,-1.174039 -1.742969,-2.485005 -2.030362,-4.151107 -0.243808,-1.413421 -0.552959,-1.956556 -1.342962,-2.359389 -1.049281,-0.53504 -2.312325,-0.203012 -2.983161,0.78421 -0.289055,0.425383 -0.373306,0.748616 -0.373306,1.432206 0,1.026523 -0.02996,1.039134 -1.321117,0.55605 -0.928965,-0.34757 -1.994965,-1.219739 -2.5106531,-2.05414 C 9.1816629,52.489846 8.5726458,50.436343 8.3446144,49.002025 7.2873625,42.351912 10.704249,32.923287 14.269931,32.651592 c 0.407188,-0.03103 1.418844,0.280671 1.418844,0.437155 0,0.0368 -0.206632,0.885387 -0.459183,1.885743 -0.252551,1.000356 -0.459184,2.03733 -0.459184,2.30439 0,1.257366 1.349513,2.413633 2.618385,2.243441 1.310918,-0.17583 1.76037,-0.788993 2.360333,-3.220077 1.514676,-6.137556 3.779975,-10.364302 6.756024,-12.605841 2.294982,-1.728564 3.725622,-2.477064 5.54256,-2.899827 1.774901,-0.412981 4.274571,0.09606 6.278576,1.278589 2.309533,1.362818 4.884087,4.123893 6.033629,6.470753 0.611057,1.247512 0.637325,1.360824 0.638675,2.755102 0.0012,1.214168 -0.05507,1.559743 -0.340928,2.094478 -0.462935,0.86599 -0.871122,1.120111 -1.796312,1.118313 -1.242378,-0.0024 -2.084484,-0.510477 -4.183071,-2.523753 -1.035621,-0.99352 -1.980808,-1.995643 -2.100416,-2.226941 -0.121237,-0.234446 -0.526713,-0.570243 -0.916297,-0.758838 -1.323052,-0.640478 -2.690813,-0.0857 -3.222759,1.307178 -0.339826,0.889825 -0.238703,2.049267 0.33142,3.79992 0.396744,1.218262 0.416682,1.389231 0.253006,2.169568 -0.379495,1.80925 -1.922581,4.158501 -3.354442,5.106928 -0.403819,0.267477 -1.096594,0.591669 -1.539501,0.720425 -2.312208,0.672178 -2.690094,3.369822 -0.621862,4.439347 1.151759,0.595598 3.671886,-0.169538 5.425448,-1.647222 1.796774,-1.514094 3.590644,-4.095499 4.330152,-6.231149 0.394305,-1.138729 0.431631,-1.19015 0.709244,-0.97708 0.775711,0.595367 2.509936,1.273035 3.702738,1.446888 3.126604,0.455708 5.900977,-0.92724 7.185141,-3.581592 0.630975,-1.304214 0.862108,-2.378602 0.874415,-4.064583 l 0.01033,-1.415257 1.913265,-0.863849 c 6.64345,-2.999551 16.69995,-6.337551 20.223767,-6.712766 0.540507,-0.05755 1.547768,-0.02518 2.259674,0.07263 3.043833,0.418182 4.680066,1.719597 4.369615,3.475477 -0.177527,1.004068 -0.950694,2.442954 -1.620989,3.016701 -1.580313,1.352689 -4.687141,2.537612 -9.849414,3.7565 -8.147922,1.923844 -16.607205,4.271523 -17.614291,4.888443 -1.232284,0.75487 -1.296544,2.997466 -0.108201,3.7761 0.795618,0.521309 1.229481,0.536721 4.244594,0.150782 6.061017,-0.775822 8.121091,-0.909863 14.090143,-0.9168 5.882194,-0.0068 7.13507,0.08458 9.6117,0.701303 2.540941,0.63274 3.838438,1.521783 4.401276,3.015747 0.844332,2.241146 -0.0112,4.500354 -2.0742,5.477292 -0.68762,0.325625 -0.976765,0.362565 -2.848454,0.363909 -5.151857,0.0037 -15.207485,-1.470866 -23.631138,-3.465286 -2.868159,-0.679078 -3.655104,-0.66013 -4.446644,0.107061 -0.590944,0.572765 -0.897123,1.43766 -0.740313,2.09123 0.283007,1.17954 0.970279,1.768321 2.278794,1.952224 1.09712,0.154194 2.55065,0.895215 3.423352,1.745253 2.38012,2.318311 1.780376,4.705228 -1.586618,6.314558 -2.173322,1.038786 -4.236238,1.371381 -6.589766,1.062436 -2.042447,-0.26811 -3.04412,-0.560399 -4.736764,-1.382197 -2.260435,-1.097465 -3.430849,-2.356714 -3.688594,-3.968559 -0.184189,-1.151857 0.554361,-1.746713 2.513033,-2.024095 0.902916,-0.127869 1.094449,-0.09816 2.586817,0.401216 0.886438,0.296619 2.325703,0.888883 3.198369,1.316142 1.395061,0.683023 1.661405,0.764207 2.205567,0.67227 1.482991,-0.250549 2.430365,-1.995252 1.769902,-3.259481 -0.118761,-0.227325 -0.412067,-0.599673 -0.651793,-0.82744 -0.596686,-0.566922 -3.279718,-1.804189 -5.407791,-2.493779 -1.721934,-0.557982 -1.798474,-0.568561 -3.520408,-0.486571 -2.511204,0.119573 -4.204793,0.702709 -5.537397,1.906636 -1.090026,0.984772 -1.809542,2.49221 -1.809542,3.791116 v 0.641603 l -0.666808,0.07516 c -2.410601,0.271709 -4.745728,2.820141 -5.121986,5.589858 -0.07149,0.526262 -0.171952,0.998808 -0.223247,1.050102 -0.214286,0.214287 -2.065692,0.19893 -2.86551,-0.02377 z"
     style="opacity:0.540984;fill:#ffffff;stroke-width:0.153061" /><path
     id="path832"
     d="m 23.494898,61.064804 c -1.195765,-0.332945 -2.339914,-1.068805 -3.37225,-2.168867 -1.101758,-1.174039 -1.742969,-2.485005 -2.030362,-4.151107 -0.12381,-0.717758 -0.350807,-1.454041 -0.519079,-1.683674 -0.463926,-0.633092 -1.234774,-0.97053 -2.056203,-0.900102 -1.328016,0.113863 -2.124147,1.067057 -2.124147,2.543201 0,0.91247 -0.04944,0.929447 -1.321117,0.453652 -0.928965,-0.34757 -1.994965,-1.219739 -2.5106531,-2.05414 C 9.1816629,52.489846 8.5726458,50.436343 8.3446144,49.002025 7.2873625,42.351912 10.704249,32.923287 14.269931,32.651592 c 0.407188,-0.03103 1.418844,0.280671 1.418844,0.437155 0,0.0368 -0.206632,0.885387 -0.459183,1.885743 -0.544355,2.15619 -0.55737,2.455627 -0.143861,3.309822 0.569554,1.176542 2.197669,1.623666 3.294755,0.904827 0.605859,-0.396973 0.915169,-1.049406 1.36864,-2.886895 1.514676,-6.137556 3.779975,-10.364302 6.756024,-12.605841 2.294982,-1.728564 3.725622,-2.477064 5.54256,-2.899827 1.774901,-0.412981 4.274571,0.09606 6.278576,1.278589 2.309533,1.362818 4.884087,4.123893 6.033629,6.470753 0.611057,1.247512 0.637325,1.360824 0.638675,2.755102 0.0012,1.214168 -0.05507,1.559743 -0.340928,2.094478 -0.462935,0.86599 -0.871122,1.120111 -1.796312,1.118313 -1.250894,-0.0024 -2.083409,-0.507576 -4.215854,-2.558052 -1.05365,-1.013149 -2.011988,-2.021951 -2.129637,-2.241782 -0.11765,-0.219832 -0.516716,-0.54628 -0.886814,-0.725441 -1.262459,-0.611146 -2.674187,-0.02834 -3.18757,1.315935 -0.34268,0.897296 -0.243038,2.051132 0.328752,3.806906 0.396744,1.218262 0.416682,1.389231 0.253006,2.169568 -0.379495,1.80925 -1.922581,4.158501 -3.354442,5.106928 -0.403819,0.267477 -1.096594,0.591669 -1.539501,0.720425 -1.44842,0.421067 -2.233509,1.652763 -1.883055,2.95425 0.177661,0.659782 0.991394,1.479314 1.627325,1.638923 1.140012,0.286125 3.399713,-0.451394 4.734684,-1.545303 2.101698,-1.722183 3.92164,-4.278788 4.700452,-6.603065 0.346724,-1.034754 0.380079,-1.078306 0.660882,-0.862879 0.734365,0.56339 2.509734,1.269506 3.62481,1.441692 3.136008,0.48425 5.97879,-0.914267 7.265763,-3.574426 0.62401,-1.28982 0.852215,-2.354936 0.869972,-4.06048 l 0.01478,-1.419121 1.913265,-0.863969 c 6.64092,-2.998823 16.699722,-6.337646 20.223767,-6.712885 0.540507,-0.05755 1.547768,-0.02518 2.259674,0.07263 3.043833,0.418182 4.680066,1.719597 4.369615,3.475477 -0.177527,1.004068 -0.950694,2.442954 -1.620989,3.016701 -1.580313,1.352689 -4.687141,2.537612 -9.849414,3.7565 -8.252865,1.948622 -16.776875,4.328748 -17.723133,4.948759 -1.131989,0.741709 -1.131605,2.973908 6.12e-4,3.715784 0.785476,0.514663 1.217668,0.529801 4.234601,0.148325 5.391828,-0.681768 8.045888,-0.873715 13.181769,-0.953323 4.040881,-0.06264 5.47305,-0.02932 7.161303,0.166573 4.795968,0.556502 7.013307,1.580826 7.77004,3.589457 0.844331,2.241146 -0.0112,4.500354 -2.0742,5.477292 -0.68762,0.325625 -0.976765,0.362565 -2.848454,0.363909 -5.191757,0.0037 -16.076567,-1.611191 -24.166823,-3.585501 -2.021598,-0.49334 -2.851243,-0.504696 -3.521965,-0.04821 -0.812183,0.552767 -1.129069,1.090933 -1.12622,1.912662 0.0048,1.374824 0.781668,2.196294 2.275736,2.406276 1.09712,0.154194 2.55065,0.895215 3.423352,1.745253 2.38012,2.318311 1.780376,4.705228 -1.586618,6.314558 -2.173322,1.038786 -4.236238,1.371381 -6.589766,1.062436 -2.042447,-0.26811 -3.04412,-0.560399 -4.736764,-1.382197 -2.260435,-1.097465 -3.430849,-2.356714 -3.688594,-3.968559 -0.184189,-1.151857 0.554361,-1.746713 2.513033,-2.024095 0.902916,-0.127869 1.094449,-0.09816 2.586817,0.401216 0.886438,0.296619 2.325703,0.888883 3.198369,1.316142 1.395061,0.683023 1.661405,0.764207 2.205567,0.67227 1.482991,-0.250549 2.430365,-1.995252 1.769902,-3.259481 -0.118761,-0.227325 -0.412067,-0.599673 -0.651793,-0.82744 -0.596686,-0.566922 -3.279718,-1.804189 -5.407791,-2.493779 -1.721934,-0.557982 -1.798474,-0.568561 -3.520408,-0.486571 -2.548785,0.121362 -4.104097,0.66362 -5.542845,1.932505 -0.934405,0.824088 -1.687108,2.32069 -1.774448,3.528142 l -0.06384,0.882561 -0.649712,0.07323 c -2.362937,0.266337 -4.571253,2.632788 -5.054678,5.416638 -0.109565,0.630929 -0.236898,1.184833 -0.282965,1.2309 -0.206335,0.206335 -2.07358,0.184582 -2.856004,-0.03327 z"
     style="opacity:0.540984;fill:#ffffff;stroke-width:0.153061" /><path
     id="path834"
     d="m 23.494898,61.05564 c -1.185013,-0.317051 -2.332971,-1.052242 -3.37225,-2.159703 -1.101758,-1.174039 -1.742969,-2.485005 -2.030362,-4.151107 -0.12381,-0.717758 -0.350807,-1.454041 -0.519079,-1.683674 -0.463926,-0.633092 -1.234774,-0.97053 -2.056203,-0.900102 -1.328016,0.113863 -2.124147,1.067057 -2.124147,2.543201 0,0.91247 -0.04944,0.929447 -1.321117,0.453652 -0.928965,-0.34757 -1.994965,-1.219739 -2.5106531,-2.05414 C 9.1816629,52.489846 8.5726458,50.436343 8.3446144,49.002025 7.2873625,42.351912 10.704249,32.923287 14.269931,32.651592 c 0.638123,-0.04862 1.457321,0.322446 1.378434,0.624385 -1.027819,3.933992 -1.054361,4.526907 -0.243967,5.449895 1.065601,1.213651 3.000879,1.022555 3.719594,-0.367286 0.118148,-0.228473 0.392329,-1.135019 0.609291,-2.014547 0.964182,-3.908631 2.298548,-7.226197 3.813692,-9.481794 0.922001,-1.372584 1.890235,-2.371081 3.36796,-3.473235 2.673379,-1.993926 5.139765,-2.934474 7.141187,-2.723268 1.36039,0.143559 3.095426,0.716231 4.270164,1.409423 2.327616,1.373488 4.873165,4.103615 6.033278,6.470753 0.611501,1.247731 0.637676,1.36058 0.639026,2.755102 0.0012,1.214168 -0.05507,1.559743 -0.340928,2.094478 -0.462935,0.86599 -0.871122,1.120111 -1.796312,1.118313 -1.250894,-0.0024 -2.083409,-0.507576 -4.215854,-2.558052 -1.05365,-1.013149 -2.011988,-2.021951 -2.129637,-2.241782 -0.11765,-0.219832 -0.516716,-0.54628 -0.886814,-0.725441 -1.262459,-0.611146 -2.674187,-0.02834 -3.18757,1.315935 -0.34268,0.897296 -0.243038,2.051132 0.328752,3.806906 0.396744,1.218262 0.416682,1.389231 0.253006,2.169568 -0.379495,1.80925 -1.922581,4.158501 -3.354442,5.106928 -0.403819,0.267477 -1.096594,0.591669 -1.539501,0.720425 -1.996034,0.580263 -2.6355,2.750414 -1.185572,4.023467 0.662279,0.581491 1.083063,0.693251 2.182771,0.579752 2.926541,-0.302047 6.774718,-4.109391 8.140732,-8.054356 0.390267,-1.127065 0.427485,-1.178002 0.705051,-0.964967 0.731464,0.561407 2.508569,1.267771 3.622116,1.439722 3.127206,0.482891 5.974085,-0.91718 7.25595,-3.568416 0.631665,-1.306451 0.862125,-2.370881 0.879785,-4.063471 l 0.01477,-1.416102 1.836735,-0.83626 c 6.522977,-2.969892 16.744682,-6.368006 20.291333,-6.745672 0.549869,-0.05855 1.550998,-0.02693 2.268638,0.07167 3.043834,0.418182 4.680066,1.719597 4.369615,3.475477 -0.177527,1.004068 -0.950694,2.442954 -1.620989,3.016701 -1.605733,1.374448 -4.657618,2.526463 -10.155536,3.833478 -8.291066,1.971027 -16.490006,4.264386 -17.417011,4.871781 -1.131989,0.741709 -1.131605,2.973908 6.12e-4,3.715784 0.785477,0.514663 1.217668,0.529801 4.234601,0.148325 5.391828,-0.681768 8.045889,-0.873715 13.181769,-0.953323 4.040881,-0.06264 5.47305,-0.02932 7.161303,0.166573 4.795969,0.556502 7.013307,1.580826 7.77004,3.589457 0.844332,2.241146 -0.0112,4.500354 -2.0742,5.477292 -0.692178,0.327783 -0.970065,0.362268 -2.908163,0.360884 -5.177198,-0.0037 -15.962766,-1.595713 -23.836639,-3.518443 -2.281715,-0.557173 -3.103012,-0.581481 -3.792469,-0.112241 -0.812182,0.552767 -1.129068,1.090933 -1.12622,1.912662 0.0048,1.374824 0.781669,2.196294 2.275736,2.406276 1.712397,0.240667 3.763688,1.669505 4.517177,3.146463 0.414942,0.813355 0.453537,1.878321 0.09307,2.568108 -0.642479,1.229442 -2.557926,2.503773 -4.673711,3.109384 -4.438122,1.270346 -11.134924,-0.743007 -12.704438,-3.819508 -0.991601,-1.943702 -0.369807,-2.906924 2.102545,-3.257051 0.902916,-0.127869 1.094449,-0.09816 2.586818,0.401216 0.886437,0.296619 2.325702,0.888883 3.198369,1.316142 1.395061,0.683023 1.661404,0.764207 2.205566,0.67227 1.482992,-0.250549 2.430366,-1.995252 1.769902,-3.259481 -0.11876,-0.227325 -0.41149,-0.599011 -0.65051,-0.825971 -0.59946,-0.56921 -2.980266,-1.670383 -5.262141,-2.433851 -1.905981,-0.637702 -1.908204,-0.638035 -3.667341,-0.551121 -2.552876,0.12613 -4.106108,0.668545 -5.542844,1.935658 -0.924547,0.815392 -1.647473,2.250525 -1.760266,3.494426 l -0.08314,0.916854 -0.647152,0.07294 c -1.612517,0.181754 -3.405231,1.544873 -4.326315,3.289583 -0.402201,0.761845 -0.564135,1.314895 -0.891182,3.043631 -0.104166,0.550608 -1.465897,0.674984 -2.973593,0.271598 z"
     style="opacity:0.540984;fill:#ffffff;stroke-width:0.153061" /><path
     id="path836"
     d="m 36.905776,67.874763 c -1.838889,-0.460476 -4.237255,-2.486103 -5.15798,-4.35636 -0.645464,-1.311125 -0.749015,-2.371709 -0.325124,-3.329985 0.671233,-1.517431 1.650105,-1.547472 3.045549,-0.09347 1.583373,1.649823 4.510419,3.299031 7.072004,3.984633 1.013196,0.271179 1.307341,0.415202 1.439245,0.7047 0.359551,0.789128 -0.904502,2.138271 -2.613411,2.789335 -0.956288,0.364328 -2.627227,0.509747 -3.460283,0.301142 z"
     style="opacity:0.540984;fill:#ffffff;stroke-width:0.153061" /><path
     id="path838"
     d="m 36.905776,67.874763 c -2.600399,-0.651165 -5.528631,-3.812138 -5.724995,-6.180027 -0.08048,-0.970548 0.340963,-2.067148 0.947084,-2.464294 0.676562,-0.4433 1.254994,-0.203633 2.57365,1.066364 1.74901,1.684471 4.419309,3.136594 7.061484,3.840073 0.807931,0.215111 1.087004,0.363258 1.215485,0.645244 0.360582,0.791391 -0.901038,2.13949 -2.612425,2.791498 -0.956288,0.364328 -2.627227,0.509747 -3.460283,0.301142 z"
     style="opacity:0.540984;fill:#ffffff;stroke-width:0.153061" /><path
     id="path840"
     d="m 36.905776,67.874763 c -2.600399,-0.651165 -5.528631,-3.812138 -5.724995,-6.180027 -0.08048,-0.970548 0.340963,-2.067148 0.947084,-2.464294 0.676562,-0.4433 1.254994,-0.203633 2.57365,1.066364 1.74901,1.684471 4.419309,3.136594 7.061484,3.840073 0.807931,0.215111 1.087004,0.363258 1.215485,0.645244 0.360582,0.791391 -0.901038,2.13949 -2.612425,2.791498 -0.956288,0.364328 -2.627227,0.509747 -3.460283,0.301142 z"
     style="opacity:0.540984;fill:#ffffff;stroke-width:0.153061" /><path
     id="path842"
     d="m 36.905776,67.874763 c -1.844938,-0.46199 -4.228731,-2.468788 -5.146116,-4.332261 -0.657773,-1.336128 -0.763618,-2.389615 -0.336988,-3.354084 0.654606,-1.479845 1.660099,-1.543268 2.955099,-0.186397 1.691686,1.772508 4.52731,3.358537 7.385228,4.130723 0.805408,0.217615 1.087405,0.368273 1.215485,0.649379 0.360582,0.791391 -0.901038,2.13949 -2.612425,2.791498 -0.956288,0.364328 -2.627227,0.509747 -3.460283,0.301142 z"
     style="opacity:0.540984;fill:#ffffff;stroke-width:0.153061" /><path
     id="path844"
     d="m 36.905776,67.874763 c -1.844938,-0.46199 -4.228731,-2.468788 -5.146116,-4.332261 -0.657773,-1.336128 -0.763618,-2.389615 -0.336988,-3.354084 0.671752,-1.518605 1.581351,-1.537906 3.097607,-0.06573 1.817326,1.764495 3.678633,2.836191 6.569692,3.782671 1.485044,0.486176 1.789228,0.639327 1.905327,0.959299 0.28594,0.788063 -0.994686,2.09179 -2.685982,2.734432 -0.897901,0.341175 -2.593504,0.478511 -3.40354,0.275671 z"
     style="opacity:0.540984;fill:#ffb380;stroke-width:0.153061" /><path
     id="path846"
     d="m 23.494898,61.05564 c -1.183752,-0.316714 -2.332724,-1.05198 -3.36833,-2.155512 -1.116366,-1.189589 -1.763028,-2.506782 -2.039999,-4.155298 -0.121543,-0.723412 -0.341186,-1.445511 -0.507408,-1.668146 -0.479154,-0.641775 -1.255443,-0.986815 -2.062157,-0.916572 -1.328535,0.115678 -2.124147,1.068602 -2.124147,2.544143 0,0.91247 -0.04944,0.929447 -1.321117,0.453652 C 11.144294,54.810905 10.076919,53.938401 9.563407,53.107521 9.1633705,52.460249 8.5750477,50.492172 8.3521572,49.055608 7.3038893,42.299359 10.685814,32.924692 14.269931,32.651592 c 0.638123,-0.04862 1.457321,0.322446 1.378434,0.624385 -1.026124,3.927504 -1.053746,4.527606 -0.250512,5.442441 1.063773,1.21157 3.010764,1.023549 3.726139,-0.359832 0.118148,-0.228473 0.393067,-1.141117 0.610932,-2.028096 1.162939,-4.734601 2.808096,-8.402565 4.865991,-10.84898 1.678228,-1.995068 5.070319,-4.140945 7.388881,-4.674292 1.839533,-0.423155 4.307545,0.0707 6.33649,1.267947 2.327616,1.373488 4.873165,4.103615 6.033278,6.470753 0.611501,1.247731 0.637676,1.36058 0.639026,2.755102 0.0012,1.214168 -0.05507,1.559743 -0.340928,2.094478 -0.462935,0.86599 -0.871122,1.120111 -1.796312,1.118313 -1.387651,-0.0027 -2.147603,-0.502827 -4.781109,-3.146479 -1.305185,-1.310215 -2.555138,-2.451643 -2.777674,-2.536506 -1.131964,-0.431674 -2.582335,0.413321 -2.930827,1.707517 -0.24155,0.897053 -0.145608,1.766208 0.386412,3.500554 0.399019,1.300772 0.421647,1.49561 0.262066,2.256422 -0.376532,1.795124 -1.924624,4.147479 -3.351427,5.092554 -0.403819,0.267477 -1.09243,0.59046 -1.53025,0.717736 -1.992989,0.579378 -2.639455,2.757753 -1.194823,4.026156 0.662279,0.581491 1.083063,0.693251 2.182771,0.579752 2.520946,-0.260184 5.763748,-3.117089 7.519226,-6.624427 0.332974,-0.665259 0.691677,-1.532122 0.79712,-1.926358 l 0.191713,-0.716795 0.420421,0.299366 c 1.594554,1.135422 3.948626,1.692585 5.881634,1.392067 3.540563,-0.550438 5.720453,-3.36881 5.783978,-7.478078 l 0.02432,-1.572975 1.836735,-0.836455 c 6.518825,-2.968694 16.744304,-6.368161 20.291332,-6.745867 0.54987,-0.05855 1.550999,-0.02693 2.268639,0.07167 3.043833,0.418182 4.680066,1.719597 4.369615,3.475477 -0.178096,1.007287 -0.950627,2.442896 -1.62537,3.02045 -1.651941,1.414 -4.568778,2.504473 -10.457277,3.909503 -8.415717,2.008038 -16.181084,4.182776 -17.110889,4.792007 -0.577004,0.378069 -0.920645,1.253915 -0.836315,2.131546 0.05676,0.590743 0.182377,0.865993 0.584593,1.280974 0.807066,0.832681 1.178255,0.869951 4.491586,0.451001 5.386987,-0.681151 8.042423,-0.873143 13.177147,-0.952735 4.040881,-0.06264 5.47305,-0.02932 7.161303,0.166573 4.794978,0.556387 7.011054,1.579936 7.771499,3.589457 0.665011,1.757331 0.310337,3.516864 -0.952298,4.724342 -0.971439,0.929004 -1.633424,1.11159 -4.031524,1.111969 -5.15948,7.65e-4 -15.95376,-1.591649 -23.83664,-3.516578 -1.028481,-0.251145 -2.188677,-0.456629 -2.578212,-0.456629 -0.781893,0 -1.500729,0.39242 -2.031632,1.109091 -0.627615,0.847223 -0.264951,2.575393 0.659129,3.140873 0.174222,0.106613 0.808068,0.297192 1.408549,0.423507 2.575498,0.541772 4.742365,2.588651 4.76525,4.501379 0.01584,1.323952 -1.022773,2.563684 -2.949151,3.520226 -1.859397,0.923281 -2.850328,1.142692 -5.131171,1.136144 -2.499612,-0.0072 -4.132477,-0.378096 -6.291156,-1.429083 -2.260156,-1.100394 -3.41376,-2.346455 -3.672948,-3.96732 -0.184189,-1.151857 0.554361,-1.746713 2.513033,-2.024095 0.902916,-0.127869 1.094449,-0.09816 2.586817,0.401216 0.886438,0.296619 2.328098,0.890057 3.203694,1.318748 1.794302,0.878492 2.287353,0.905546 3.245679,0.178084 1.215955,-0.923027 1.247444,-2.479173 0.07275,-3.595266 -0.574592,-0.545928 -3.036896,-1.686614 -5.244103,-2.429379 -1.478228,-0.49745 -1.977381,-0.596315 -3.020199,-0.598197 -4.501456,-0.0081 -7.667212,2.167029 -7.967085,5.474082 l -0.08314,0.916854 -0.647152,0.07294 c -1.612517,0.181754 -3.405231,1.544873 -4.326316,3.289583 -0.4022,0.761845 -0.564134,1.314895 -0.891182,3.043631 -0.104166,0.550608 -1.465896,0.674984 -2.973592,0.271598 z"
     style="opacity:0.540984;fill:#ffb380;stroke-width:0.153061" /><path
     id="path848"
     d="m 22.984434,60.77347 c -1.17865,-0.484625 -1.947367,-1.031943 -2.875125,-2.047059 -0.997281,-1.091184 -1.461768,-2.037447 -1.924154,-3.919928 -0.236262,-0.961875 -0.503298,-1.676093 -0.710426,-1.900107 -1.44474,-1.562535 -4.073775,-0.641674 -4.083644,1.430359 -0.0045,0.951202 -0.153522,1.088542 -0.928879,0.85624 C 10.769637,54.685869 9.6413862,53.478479 9.0602174,51.55236 8.3658578,49.251104 8.290301,48.742405 8.2916062,46.377551 c 0.00152,-2.749368 0.2942396,-4.603065 1.1300531,-7.156186 0.7549927,-2.306244 1.6718047,-4.060349 2.7061247,-5.177538 1.035218,-1.118159 1.901442,-1.4982 2.800723,-1.228769 0.333964,0.100058 0.607207,0.276962 0.607207,0.393119 0,0.116158 -0.179434,0.955776 -0.398742,1.865817 -0.49615,2.058826 -0.45144,2.924621 0.185635,3.594786 0.868105,0.913194 1.876475,1.139441 2.904399,0.65166 0.752198,-0.356942 1.019862,-0.915196 1.794411,-3.742526 1.133535,-4.137725 2.422968,-7.072957 4.10177,-9.337156 1.649658,-2.224895 4.927732,-4.512593 7.564543,-5.279135 1.985514,-0.577204 4.87036,0.05234 7.155099,1.561421 2.227809,1.471478 4.929961,4.639395 5.762337,6.755581 0.426547,1.08443 0.437266,3.046594 0.02164,3.961994 -0.383668,0.845022 -0.881102,1.152558 -1.852073,1.145037 -1.260755,-0.0098 -1.951851,-0.465008 -4.565996,-3.007736 -1.315829,-1.279881 -2.542862,-2.40623 -2.726741,-2.502998 -0.547639,-0.288201 -1.482118,-0.211028 -2.03968,0.168445 -1.299655,0.884538 -1.525369,2.130362 -0.840871,4.641167 0.284913,1.04509 0.394295,1.761332 0.350316,2.293912 -0.12328,1.492918 -1.748803,4.195298 -3.093795,5.143335 -0.368173,0.259513 -1.128871,0.665686 -1.690437,0.902606 -1.233396,0.520361 -1.397258,0.648669 -1.77566,1.390398 -0.379771,0.744413 -0.37371,1.403375 0.01934,2.102718 0.48585,0.864455 1.151291,1.242701 2.18626,1.242701 2.848332,0 6.321057,-2.953218 8.280402,-7.041686 0.299049,-0.62401 0.584312,-1.350907 0.633918,-1.615327 l 0.09019,-0.480763 1.173495,0.589656 c 3.280714,1.648489 6.484146,1.354203 8.833668,-0.811511 1.28256,-1.182222 2.024986,-3.126065 2.166416,-5.67217 l 0.09104,-1.638944 2.082001,-0.917186 c 5.725203,-2.522125 13.477151,-5.215372 17.92384,-6.227251 3.335175,-0.758946 6.565147,-0.23785 8.01923,1.293754 0.333332,0.351102 0.461189,0.658726 0.517541,1.245204 0.06465,0.672856 -0.0014,0.933197 -0.485239,1.912154 -0.689538,1.395187 -1.39016,2.02576 -3.230103,2.907156 -1.945898,0.932151 -3.555236,1.412593 -11.020409,3.289962 -9.190939,2.311372 -13.882039,3.685945 -14.505809,4.25045 -0.482279,0.436456 -0.723782,1.047923 -0.723782,1.832555 0,0.99179 0.522165,1.76169 1.429956,2.108378 0.638916,0.244004 0.819255,0.240129 3.562838,-0.07657 1.589423,-0.183474 3.785267,-0.433383 4.879655,-0.555352 1.217481,-0.135689 4.395852,-0.255485 8.188775,-0.308645 5.256951,-0.07368 6.478099,-0.04852 8.035714,0.165557 4.297967,0.590705 6.53597,1.717681 7.086109,3.568301 0.565976,1.903903 0.292046,3.192293 -0.940644,4.424162 -1.116179,1.115436 -1.455603,1.1823 -5.456689,1.074912 -5.354322,-0.143706 -12.797962,-1.245468 -21.447037,-3.174459 -3.675507,-0.819743 -4.351517,-0.799822 -5.30775,0.156411 -0.568965,0.568964 -0.75024,1.34236 -0.505838,2.158104 0.302455,1.009502 0.802298,1.45271 1.964655,1.742046 2.793816,0.695446 4.749282,2.315277 5.026476,4.163734 0.229678,1.531601 -1.176987,3.134624 -3.656408,4.166809 -1.520144,0.632838 -3.011057,0.847581 -5.0792,0.731587 -1.975069,-0.110777 -3.093769,-0.355941 -4.668368,-1.023082 -2.867517,-1.214937 -4.438775,-2.827775 -4.438775,-4.55624 0,-0.909198 0.826936,-1.455885 2.499583,-1.652472 1.045324,-0.122858 2.205502,0.20988 5.166817,1.481837 1.161787,0.499015 2.29624,0.907301 2.521008,0.907301 0.224767,0 0.6603,-0.141425 0.96785,-0.314279 1.643738,-0.923831 1.676726,-3.036062 0.06474,-4.145139 -0.86534,-0.595372 -3.352122,-1.683879 -5.197233,-2.27492 -3.378072,-1.082094 -7.380287,-0.257016 -9.383093,1.934372 -0.823191,0.900703 -1.384567,2.158939 -1.384567,3.103294 0,0.683908 -0.169064,0.856077 -0.959939,0.977571 -1.356606,0.208404 -3.124429,1.552036 -3.98889,3.031749 -0.226688,0.388027 -0.556993,1.283436 -0.73401,1.989796 -0.177018,0.70636 -0.391218,1.370388 -0.476002,1.475618 -0.276649,0.343364 -2.216176,0.233351 -3.229174,-0.183163 z"
     style="opacity:0.540984;fill:#ffb380;stroke-width:0.153061" /><path
     id="path850"
     d="m 24.045046,60.993533 c -1.233205,-0.218659 -2.54184,-0.962867 -3.555947,-2.022234 -1.214034,-1.268217 -1.618422,-2.005586 -2.197024,-4.006098 -0.265249,-0.917097 -0.58471,-1.82379 -0.709912,-2.014873 -0.374041,-0.570859 -1.206914,-0.877044 -2.168734,-0.797283 -0.75266,0.06242 -0.909787,0.139179 -1.432963,0.700052 -0.432638,0.463811 -0.58816,0.762703 -0.589699,1.133323 -0.0054,1.289552 -0.298613,1.441151 -1.608157,0.831336 C 10.550775,54.244127 9.6986306,53.165063 9.1348895,51.464968 8.450431,49.400821 8.2884561,48.115929 8.387441,45.535714 8.480165,43.118694 8.7325552,41.652438 9.4413116,39.413265 10.618295,35.694826 12.71587,32.826441 14.25276,32.833723 c 1.249904,0.0059 1.292385,0.120203 0.827083,2.225051 -0.554549,2.508571 -0.366979,3.405588 0.868522,4.153513 1.111042,0.672584 2.637416,0.340145 3.170383,-0.690499 0.126802,-0.245209 0.579347,-1.630052 1.005656,-3.07743 1.973244,-6.699438 3.79685,-9.73103 7.370601,-12.253002 2.300969,-1.623779 4.064834,-2.318708 5.872342,-2.313588 3.237347,0.0092 6.283947,1.738022 9.062403,5.14264 0.618308,0.757653 1.402393,1.932132 1.742409,2.609954 0.540011,1.076509 0.621792,1.376614 0.646497,2.372449 0.05198,2.095311 -0.421047,3.087292 -1.564286,3.280441 -1.361089,0.229954 -2.201461,-0.301676 -5.768912,-3.649488 l -2.097409,-1.968278 -0.895711,0.06479 c -0.731624,0.05292 -0.982304,0.147118 -1.368403,0.514196 -0.259982,0.247173 -0.569861,0.635398 -0.688621,0.862723 -0.304645,0.583138 -0.268031,2.028516 0.08912,3.518313 0.529124,2.207123 0.39819,3.135091 -0.710648,5.036591 -0.926916,1.589525 -1.763932,2.358534 -3.483448,3.200409 -1.314942,0.643797 -1.619085,0.861652 -1.899513,1.360607 -0.626714,1.115085 -0.306572,2.477778 0.753092,3.205565 0.453845,0.311704 0.666943,0.350732 1.671444,0.306122 1.369131,-0.0608 2.599201,-0.597986 4.04746,-1.767559 1.787497,-1.443534 3.680162,-4.098678 4.4094,-6.185772 0.187436,-0.536441 0.350962,-0.996988 0.363394,-1.023437 0.01243,-0.02645 0.500547,0.1926 1.084703,0.486776 1.583742,0.79756 2.758442,1.056534 4.479475,0.987548 1.241551,-0.04977 1.605282,-0.129209 2.48855,-0.543504 1.372517,-0.643779 2.597858,-1.816892 3.186856,-3.051027 0.486507,-1.019384 0.906227,-2.848128 0.906227,-3.948485 0,-1.491934 0.0249,-1.523616 1.815841,-2.310716 5.821257,-2.558375 14.274002,-5.498134 18.289476,-6.36085 1.22663,-0.263539 1.855615,-0.310729 3.367347,-0.252637 2.270394,0.08724 3.362538,0.444347 4.346213,1.421099 0.607353,0.603079 0.65051,0.701496 0.65051,1.483461 0,1.08152 -0.682042,2.489245 -1.595306,3.292688 -1.494332,1.314636 -3.828196,2.185897 -10.42,3.889918 -12.131521,3.13607 -15.518865,4.090942 -16.761831,4.725055 -1.520971,0.775943 -1.42262,3.375851 0.157739,4.169852 0.708409,0.355916 0.997927,0.345436 5.685996,-0.205826 3.762815,-0.442462 4.485851,-0.479348 10.89267,-0.555697 7.218014,-0.08602 8.425204,-0.02007 10.892773,0.594994 3.286871,0.819289 4.668368,2.215031 4.668368,4.716502 0,1.005467 -0.278884,1.651278 -1.098022,2.542697 -0.983423,1.070201 -1.232208,1.134608 -4.382683,1.134608 -5.338847,0 -11.527719,-0.823477 -20.802749,-2.767965 -4.699591,-0.98526 -5.792932,-1.084872 -6.587843,-0.600209 -0.997912,0.608434 -1.372549,1.839463 -0.89843,2.952172 0.333116,0.781791 0.843073,1.134269 2.356606,1.628868 3.611664,1.180237 5.315902,3.523211 4.087451,5.619403 -0.705152,1.203249 -2.693125,2.415053 -4.756032,2.899122 -1.343011,0.315141 -5.024963,0.227169 -6.413196,-0.15323 -1.654421,-0.453338 -3.966501,-1.689072 -4.892102,-2.614673 -1.01443,-1.01443 -1.474133,-2.213103 -1.125465,-2.93465 0.314184,-0.650186 1.080996,-1.0062 2.341463,-1.087092 1.280212,-0.08216 1.634348,0.01465 4.990863,1.36436 1.22822,0.493886 2.434651,0.897975 2.680959,0.897975 1.172362,0 2.203261,-1.0884 2.203261,-2.326154 0,-1.402053 -0.536637,-1.970495 -2.917163,-3.090053 -2.848072,-1.339447 -3.978446,-1.660972 -6.113449,-1.73892 -2.100216,-0.07668 -3.203284,0.117371 -4.706275,0.827912 -1.760455,0.832258 -3.405535,2.931655 -3.405849,4.34643 -1.53e-4,0.724898 -0.245357,1.004385 -1.070689,1.220419 -1.019012,0.26673 -1.700385,0.657511 -2.633598,1.510414 -0.96857,0.885219 -1.642436,2.069614 -2.091874,3.676708 -0.174721,0.624767 -0.380178,1.198442 -0.456571,1.274835 -0.208056,0.208056 -1.226821,0.263723 -2.074792,0.113371 z"
     style="opacity:0.540984;fill:#ffb380;stroke-width:0.153061" /><path
     id="path852"
     d="m 36.317839,67.595843 c -1.008074,-0.408213 -2.565449,-1.552419 -3.379314,-2.482788 -1.66639,-1.904935 -2.128126,-4.248064 -1.082094,-5.491202 0.620602,-0.737544 1.161094,-0.644381 2.415844,0.416412 2.500813,2.114244 3.81366,2.882178 6.595072,3.857707 1.706353,0.598471 2.066326,0.825848 2.066326,1.305193 0,0.562833 -1.025226,1.532897 -2.202116,2.08363 -1.356404,0.634738 -3.279664,0.770276 -4.413718,0.311048 z"
     style="opacity:0.540984;fill:#ffb380;stroke-width:0.153061" /><path
     id="path854"
     d="m 36.216616,67.492724 c -0.841785,-0.365399 -2.372143,-1.526658 -3.158577,-2.396776 -1.825801,-2.020082 -2.21032,-4.643096 -0.83027,-5.663736 0.534097,-0.395001 0.796087,-0.272742 2.823251,1.317482 1.878508,1.473609 3.520616,2.378928 5.858939,3.230123 1.852679,0.674411 2.158183,0.965742 1.748437,1.667323 -0.35961,0.615738 -1.506541,1.420278 -2.545057,1.785287 -1.038741,0.365088 -3.120359,0.397299 -3.896723,0.0603 z"
     style="opacity:0.540984;fill:#ffb380;stroke-width:0.153061" /><path
     id="path856"
     d="m 36.811224,67.596909 c -0.294642,-0.06422 -0.707908,-0.206449 -0.918367,-0.316068 -0.732696,-0.381629 -2.539742,-1.833398 -3.009191,-2.417565 -1.479507,-1.841049 -1.869425,-4.152099 -0.869281,-5.152244 0.219894,-0.219894 0.54539,-0.399725 0.723324,-0.399624 0.177933,1.01e-4 1.150046,0.619324 2.16025,1.37605 2.04775,1.533935 3.367709,2.27334 5.739796,3.215279 1.6762,0.665608 2.142857,0.9603 2.142857,1.353206 0,0.431914 -1.449089,1.655846 -2.367129,1.999329 -0.953115,0.356607 -2.751169,0.527133 -3.602259,0.341637 z"
     style="opacity:0.540984;fill:#ffb380;stroke-width:0.153061" /><path
     id="path858"
     d="m 35.999575,67.294037 c -0.855905,-0.448479 -2.173793,-1.501505 -2.925383,-2.337454 -1.707324,-1.898956 -2.102233,-4.56235 -0.802721,-5.413823 0.482711,-0.316284 0.610649,-0.254501 3.009141,1.453146 1.81175,1.289907 3.421516,2.166074 5.626926,3.062636 1.224019,0.497599 1.873074,0.923194 1.873074,1.228203 0,0.276556 -1.289154,1.399021 -2.061125,1.79462 -0.656761,0.336558 -1.01906,0.403913 -2.454181,0.456254 -1.459984,0.05325 -1.761005,0.02089 -2.265731,-0.243582 z"
     style="opacity:0.540984;fill:#ffb380;stroke-width:0.153061" /><path
     id="path860"
     d="m 35.969388,67.212179 c -1.108629,-0.523472 -3.050254,-2.249773 -3.596881,-3.197993 -1.085307,-1.882655 -1.087853,-3.959875 -0.0055,-4.499362 0.442923,-0.220773 0.624938,-0.126812 2.913619,1.504079 1.564555,1.114887 3.638529,2.249004 5.564109,3.042639 0.661025,0.272443 1.384239,0.653439 1.607143,0.846658 l 0.405279,0.351305 -0.612245,0.630479 c -1.172901,1.207833 -2.450855,1.688016 -4.484575,1.685051 -0.757437,-0.0011 -1.22575,-0.09599 -1.790935,-0.362856 z"
     style="opacity:0.540984;fill:#ffb380;stroke-width:0.153061" /><path
     id="path862"
     d="m 23.234669,60.709881 c -0.96029,-0.331809 -1.744048,-0.858468 -2.71403,-1.823735 -1.001126,-0.996259 -1.428993,-1.780379 -2.229356,-4.085581 -0.828834,-2.387201 -1.120667,-2.683218 -2.645282,-2.683218 -0.873571,0 -0.945871,0.03004 -1.565389,0.65051 -0.540262,0.541088 -0.668021,0.785679 -0.759529,1.454082 -0.06051,0.441964 -0.189647,0.811503 -0.286977,0.821196 -1.207566,0.120276 -2.730193,-1.073986 -3.49426,-2.740697 -0.8074866,-1.761426 -1.0893543,-3.33861 -1.0725483,-6.001418 0.02243,-3.553951 0.6157099,-6.344017 1.9479833,-9.160947 1.433099,-3.030111 2.981803,-4.533543 4.358566,-4.231154 0.404673,0.08888 0.455745,0.163062 0.455745,0.661973 0,0.309032 -0.102121,1.043992 -0.226934,1.633247 -0.340256,1.606369 -0.303611,2.68176 0.112138,3.290837 0.859071,1.258547 2.853898,1.447108 3.808311,0.35998 0.136903,-0.15594 0.809902,-2.005466 1.495553,-4.110058 1.324425,-4.065293 1.997574,-5.653958 3.151559,-7.437838 1.377208,-2.128944 3.508583,-4.012771 6.016006,-5.317276 3.856243,-2.006238 7.720159,-1.11518 11.434811,2.636983 3.239354,3.272066 4.282034,5.743391 3.514154,8.329125 -0.297403,1.001465 -0.813977,1.318429 -1.989802,1.22092 -1.028792,-0.08532 -1.979778,-0.760284 -4.955419,-3.517136 l -2.205947,-2.043754 -0.897286,0.08579 c -0.798424,0.07634 -0.968212,0.156716 -1.541039,0.729542 -0.624464,0.624465 -0.645484,0.678022 -0.701509,1.787474 -0.03725,0.737726 0.03809,1.566577 0.212258,2.334946 0.457573,2.018688 0.385884,2.875006 -0.368071,4.396549 -0.926397,1.869548 -1.915094,2.873753 -3.843028,3.903312 -1.286202,0.686859 -1.611739,0.934353 -1.854252,1.409719 -0.576514,1.130061 -0.246814,2.472146 0.777272,3.163983 0.477879,0.322837 0.667912,0.355217 1.760204,0.299918 1.752712,-0.08873 3.046161,-0.784978 4.905678,-2.64066 1.487019,-1.48395 2.531105,-3.012678 3.375045,-4.941663 0.285298,-0.652107 0.605176,-1.172675 0.710838,-1.156821 0.105662,0.01585 0.812011,0.291364 1.569664,0.612245 1.358354,0.575288 1.405279,0.583418 3.367347,0.583418 1.876558,0 2.040263,-0.02477 2.876608,-0.435208 1.130463,-0.554781 2.529046,-1.846988 3.065178,-2.832037 0.521789,-0.958699 1.017709,-2.865133 1.037757,-3.989382 0.0214,-1.199927 0.156519,-1.569768 0.709723,-1.942573 1.028706,-0.693244 8.671747,-3.65473 13.509714,-5.234674 5.210172,-1.701495 7.19418,-2.078609 9.81496,-1.865598 1.940599,0.157727 2.883913,0.508415 3.747397,1.393138 0.543447,0.556816 0.595137,0.681487 0.588202,1.418666 -0.0162,1.721965 -1.361791,3.433633 -3.496379,4.447594 -1.644048,0.780946 -3.9148,1.460917 -11.87867,3.557036 -8.374113,2.204095 -11.488032,3.08161 -12.780613,3.601627 -1.198504,0.48217 -1.607367,1.054383 -1.60657,2.248434 0.0011,1.554383 0.906981,2.465149 2.448407,2.46144 0.46301,-0.0011 2.322704,-0.17623 4.132653,-0.389144 2.692539,-0.31674 4.459546,-0.412479 9.719388,-0.52661 3.843355,-0.08339 7.290311,-0.08379 8.571429,-9.19e-4 2.203941,0.14246 4.459041,0.609864 5.796183,1.201346 0.984532,0.435505 2.020237,1.448888 2.344947,2.294409 0.355696,0.926198 0.352053,2.374293 -0.0078,3.112951 -0.325603,0.668296 -1.385287,1.784613 -1.868462,1.968316 -1.563154,0.594309 -9.188173,0.139423 -15.678105,-0.935312 -1.052296,-0.17426 -4.358419,-0.79903 -7.346939,-1.388378 -6.134403,-1.209729 -7.140286,-1.284178 -7.889743,-0.583949 -0.574382,0.536602 -0.834739,1.108049 -0.834739,1.832093 0,1.260069 0.622667,1.92956 2.405488,2.586378 0.691641,0.254812 1.545175,0.610038 1.89674,0.789393 0.751292,0.383281 2.068553,1.576569 2.350866,2.129615 0.825535,1.617211 0.107403,3.173801 -2.048108,4.439383 -1.688345,0.991292 -2.740626,1.22912 -5.424681,1.226043 -2.916404,-0.0034 -3.997708,-0.225402 -6.043203,-1.24104 -3.439125,-1.707611 -4.752968,-4.152714 -2.81938,-5.246953 0.444156,-0.251354 2.014415,-0.391988 2.772185,-0.24828 0.431544,0.08184 1.870126,0.574157 3.196849,1.094034 1.326722,0.519878 2.722172,0.973328 3.100999,1.007666 1.276549,0.115713 2.29426,-0.902463 2.295346,-2.296391 0.0011,-1.384632 -0.571637,-2.002604 -2.87419,-3.101327 -2.685724,-1.28156 -3.977368,-1.641454 -6.15585,-1.715222 -3.041324,-0.102987 -4.748036,0.440283 -6.433385,2.047833 -0.890454,0.849351 -1.67886,2.197836 -1.67886,2.871513 0,0.678121 -0.263111,1.113384 -0.790694,1.308048 -1.864136,0.687808 -3.065788,1.552934 -3.957773,2.849394 -0.236295,0.343441 -0.653246,1.274865 -0.926557,2.06983 -0.273312,0.794964 -0.563103,1.531486 -0.64398,1.636716 -0.218028,0.283676 -1.887205,0.228195 -2.818776,-0.09369 z"
     style="opacity:0.540984;fill:#ffb380;stroke-width:0.153061" /><path
     id="path864"
     d="m 23.327898,60.704636 c -1.084721,-0.347051 -2.026909,-0.994872 -3.007679,-2.067991 -0.902657,-0.98765 -1.227141,-1.615288 -2.085844,-4.034569 -0.768827,-2.166069 -1.100778,-2.484729 -2.588374,-2.484729 -0.873933,0 -0.945509,0.02979 -1.563079,0.65051 -0.514136,0.516759 -0.669552,0.80183 -0.755882,1.386467 -0.125847,0.852242 -0.33081,0.984242 -1.148076,0.739384 -1.373032,-0.411371 -2.6950197,-2.238285 -3.3381176,-4.613096 -0.3897362,-1.439205 -0.3779039,-6.571719 0.019389,-8.410319 0.4229978,-1.95756 0.9403977,-3.442182 1.8014456,-5.169048 1.310691,-2.628641 3.017042,-4.160706 4.153001,-3.728815 0.491949,0.187039 0.527438,0.599749 0.185318,2.155121 -0.320176,1.455609 -0.293,2.725763 0.0711,3.322907 0.82748,1.357122 3.302285,1.473211 3.990542,0.187191 0.09796,-0.183048 0.759566,-2.063646 1.470227,-4.179108 1.480272,-4.406403 2.4174,-6.419228 3.8066,-8.176069 1.656764,-2.095213 4.350954,-4.067635 6.672616,-4.885037 2.915573,-1.026504 6.081808,-0.193694 9.148648,2.406354 1.322907,1.121552 3.191685,3.464964 3.894928,4.884166 0.608481,1.227964 0.639219,1.356768 0.639219,2.678571 0,2.124177 -0.60181,2.920283 -2.112339,2.794319 -0.999509,-0.08335 -2.206209,-0.935012 -4.987145,-3.519814 l -2.201525,-2.046255 -0.783169,0.06847 c -0.843489,0.07374 -1.521676,0.440489 -2.004771,1.084131 -0.425853,0.567378 -0.489107,2.134332 -0.155492,3.851919 0.388763,2.001506 0.27964,3.062484 -0.466031,4.531138 -0.804146,1.583824 -1.905512,2.665275 -3.816975,3.747955 -1.122111,0.635581 -1.586653,0.992042 -1.792124,1.375164 -0.551862,1.029004 -0.254079,2.393295 0.677472,3.103822 0.448598,0.342163 0.682133,0.40283 1.550676,0.40283 1.89642,0 3.682567,-0.952119 5.568769,-2.968475 1.223182,-1.307586 2.02371,-2.499342 2.887678,-4.298927 0.384747,-0.801398 0.765825,-1.457088 0.84684,-1.457088 0.08102,0 0.74608,0.256232 1.477923,0.569405 1.313531,0.562093 1.35716,0.569464 3.396947,0.573979 1.965995,0.0043 2.109415,-0.01658 2.953713,-0.431164 1.131174,-0.55545 2.528484,-1.846477 3.064604,-2.831506 0.502901,-0.923994 1.02218,-2.870655 1.023354,-3.83632 0.0012,-0.994773 0.253953,-1.781686 0.65709,-2.045831 1.3842,-0.906963 10.752704,-4.440456 15.746383,-5.939021 3.627614,-1.088618 4.692097,-1.264312 7.090571,-1.170299 2.372718,0.093 3.202034,0.343365 4.151785,1.253386 0.636974,0.610329 0.669643,0.684062 0.669643,1.511373 0,1.515478 -0.921641,2.954981 -2.498277,3.902039 -1.772957,1.064985 -4.171177,1.834409 -12.501723,4.010949 -8.592837,2.245069 -12.687895,3.420331 -13.667483,3.922502 -0.995041,0.510093 -1.377734,2.304839 -0.721099,3.381805 0.733159,1.202477 1.417194,1.296824 5.779351,0.797128 1.494006,-0.171141 3.887292,-0.376459 5.318415,-0.45626 3.587824,-0.200065 13.760131,-0.190412 15.123742,0.01434 4.772915,0.716717 6.687482,2.109561 6.687482,4.865134 0,1.26358 -0.184461,1.719204 -1.096702,2.708867 -0.888887,0.96433 -1.293258,1.057322 -4.490032,1.032575 -5.396737,-0.04178 -9.936404,-0.63237 -19.431617,-2.527973 -5.638445,-1.125645 -7.257894,-1.24365 -7.968166,-0.580619 -1.116529,1.042271 -1.138657,2.614897 -0.05098,3.623731 0.19741,0.183102 1.067035,0.606906 1.932499,0.941784 3.052013,1.180935 4.629037,2.947789 4.156996,4.657384 -0.349115,1.264386 -1.870869,2.550359 -3.957169,3.344041 -1.06629,0.405646 -4.348463,0.569598 -6.258064,0.312607 -3.539556,-0.476351 -7.224516,-3.06872 -7.224516,-5.082447 0,-0.602237 0.718203,-1.317106 1.463766,-1.456975 1.345674,-0.25245 2.657092,0.0016 5.454716,1.056559 1.490114,0.561926 2.936543,1.021426 3.214286,1.021111 1.141785,-0.0012 2.110572,-1.075446 2.111558,-2.341212 0.0011,-1.395092 -0.589493,-2.023522 -2.967455,-3.15764 -2.651007,-1.26434 -3.726686,-1.565052 -5.909524,-1.65204 -2.229358,-0.08884 -3.344865,0.08108 -4.702278,0.716293 -1.099399,0.514471 -2.455495,1.723244 -3.026646,2.69784 -0.213874,0.364949 -0.457067,1.023189 -0.540429,1.462754 -0.149253,0.787008 -0.494669,1.356094 -0.823247,1.356331 -0.480483,3.06e-4 -2.208207,1.01803 -2.983064,1.757117 -0.939075,0.895726 -1.463236,1.807211 -2.006146,3.488567 -0.184099,0.570141 -0.436486,1.13838 -0.560859,1.262755 -0.309187,0.309185 -1.597168,0.278218 -2.667188,-0.06413 z"
     style="opacity:0.540984;fill:#ffb380;stroke-width:0.153061" /><path
     id="path872"
     d="m 23.706533,60.849654 c -1.407887,-0.336107 -3.247627,-1.751628 -4.194632,-3.22741 -0.268994,-0.41919 -0.756761,-1.522099 -1.083926,-2.450909 -0.327165,-0.928809 -0.703073,-1.898033 -0.835352,-2.153832 -0.299818,-0.579785 -1.039474,-0.900156 -2.07823,-0.900156 -0.738781,0 -0.842177,0.04771 -1.427755,0.658857 -0.471548,0.492134 -0.668251,0.850403 -0.777335,1.415816 -0.12783,0.662584 -0.197067,0.762859 -0.555325,0.804269 -0.571257,0.06603 -1.495703,-0.443873 -2.18204,-1.203566 C 10.005695,53.16596 9.1627262,51.582733 9.0686898,50.969388 9.0428762,50.80102 8.9742869,50.5873 8.9162692,50.494453 c -0.295388,-0.472716 -0.4542826,-2.620067 -0.3782508,-5.1118 0.071095,-2.329944 0.1420394,-2.90767 0.5450787,-4.438775 0.8442183,-3.207102 1.9787809,-5.497033 3.4566469,-6.976687 0.983524,-0.984714 1.605151,-1.249414 2.30726,-0.982472 0.459627,0.174749 0.480945,0.480592 0.15297,2.194562 -0.453012,2.367398 -0.239978,3.333634 0.879663,3.989787 1.151402,0.674766 2.67242,0.420746 3.182003,-0.531419 0.09796,-0.183048 0.757522,-2.057001 1.465685,-4.164341 0.708162,-2.107341 1.606119,-4.482041 1.995458,-5.277112 0.809253,-1.652576 2.109848,-3.471028 3.205163,-4.48136 0.837746,-0.772748 2.187265,-1.770456 2.337677,-1.72826 0.0537,0.01507 0.153534,-0.07248 0.221845,-0.194545 0.06831,-0.122067 0.188847,-0.181987 0.267857,-0.133156 0.07901,0.04883 0.143655,0.02544 0.143655,-0.05199 0,-0.07742 0.396045,-0.350888 0.880102,-0.607701 2.22327,-1.17954 4.59933,-1.327669 6.97188,-0.434644 1.122828,0.422632 2.709242,1.377887 2.709242,1.631363 0,0.0902 0.06613,0.123122 0.146968,0.07317 0.370211,-0.228803 4.262328,4.171563 4.03749,4.564723 -0.05549,0.09703 -0.04417,0.124998 0.02515,0.06216 0.148318,-0.13445 0.701103,0.719697 0.732102,1.13122 0.01177,0.156226 0.06744,0.284046 0.123715,0.284046 0.155871,0 0.444782,1.281904 0.444782,1.97351 0,1.915042 -0.664439,2.92445 -1.92501,2.92445 -0.372367,0 -0.677031,-0.06672 -0.677031,-0.148258 0,-0.08154 -0.0886,-0.114258 -0.196888,-0.0727 -0.287964,0.110502 -1.925549,-1.080376 -3.530168,-2.567193 -0.770273,-0.713724 -1.786103,-1.642489 -2.257403,-2.063923 L 35.326999,28.590861 34.4432,28.710796 c -1.986142,0.269525 -2.582127,1.746644 -1.980071,4.9075 0.271108,1.423344 0.23752,3.364141 -0.05994,3.463293 -0.102141,0.03405 -0.145466,0.127021 -0.09628,0.206609 0.111725,0.180773 -0.724067,1.691494 -1.387372,2.50772 -0.557948,0.686579 -1.821891,1.64867 -1.970586,1.499974 -0.0533,-0.0533 -0.09691,-0.01772 -0.09691,0.07908 0,0.0968 -0.327169,0.342393 -0.727041,0.545773 -0.871459,0.443234 -1.776305,1.162243 -1.856507,1.47522 -0.345412,1.347932 -0.03439,2.378916 0.915427,3.034477 0.459751,0.317319 0.653836,0.351604 1.67115,0.295209 1.590258,-0.08816 2.623154,-0.584974 4.860539,-2.337897 0.684286,-0.536117 2.763098,-3.617998 3.424778,-5.077304 0.241555,-0.532737 0.511448,-0.968614 0.599761,-0.968614 0.08832,0 0.118003,-0.06888 0.06597,-0.153062 -0.14621,-0.236574 0.310963,-0.181414 0.95144,0.114796 0.318545,0.147322 0.613611,0.302296 0.655703,0.344388 0.04209,0.04209 0.214286,0.09916 0.382653,0.126808 0.168368,0.02765 0.492867,0.141579 0.72111,0.253168 0.290143,0.141851 1.003875,0.193887 2.372449,0.172967 1.817864,-0.02779 2.017499,-0.06081 2.799299,-0.463065 1.696432,-0.872853 2.850505,-2.062809 3.427192,-3.533755 0.366676,-0.935277 0.700679,-2.518843 0.703198,-3.333998 0.003,-0.968461 0.312975,-1.654853 0.9003,-1.993533 0.263732,-0.152081 0.480568,-0.220959 0.481857,-0.153062 0.0012,0.0679 0.05295,0.05025 0.114796,-0.03923 0.111621,-0.161475 2.963259,-1.401646 3.403269,-1.480073 0.126275,-0.02251 0.26403,-0.08234 0.306122,-0.132968 0.136356,-0.163998 1.83666,-0.749092 1.839078,-0.632847 0.0012,0.06196 0.05295,0.03822 0.114796,-0.05274 0.109751,-0.161415 2.410535,-1.059102 2.714494,-1.059102 0.08418,0 0.189157,-0.04776 0.233276,-0.106142 0.117514,-0.155495 6.300563,-2.186243 8.385816,-2.754219 1.661306,-0.452503 1.969429,-0.488006 4.314581,-0.497145 2.944959,-0.01148 3.680555,0.165856 4.809263,1.159386 0.688494,0.606037 0.700941,0.633571 0.700941,1.550558 0,0.975378 -0.44696,2.200886 -0.860582,2.359608 -0.114999,0.04413 -0.177494,0.131355 -0.138878,0.193835 0.171748,0.277897 -2.394527,2.093379 -2.695853,1.907149 -0.07217,-0.0446 -0.131217,-0.01614 -0.131217,0.06326 0,0.0794 -0.464924,0.316554 -1.033164,0.527014 -1.065548,0.394647 -5.846845,1.790744 -6.390306,1.865913 -0.168367,0.02329 -0.409439,0.08226 -0.535714,0.13106 -0.642804,0.24839 -1.889642,0.549373 -1.998109,0.482336 -0.06798,-0.04201 -0.162033,-0.01419 -0.209013,0.06182 -0.07114,0.115104 -0.755545,0.316852 -1.389817,0.409686 -0.08418,0.01232 -0.256377,0.06412 -0.382653,0.115114 -0.126275,0.05099 -1.541255,0.437302 -3.144398,0.858467 -4.753915,1.24891 -8.755714,2.429472 -9.509483,2.805371 -0.879159,0.43843 -1.27469,1.119993 -1.27469,2.196494 0,1.379484 0.996829,2.358447 2.402022,2.358969 0.353,1.3e-4 1.937184,-0.135788 3.520408,-0.302042 1.583224,-0.166255 3.016345,-0.30426 3.184712,-0.30668 0.168368,-0.0024 0.994898,-0.06044 1.836735,-0.128928 0.841837,-0.06849 4.492347,-0.133891 8.112245,-0.145334 5.117804,-0.01618 6.89919,0.02915 8.009425,0.203807 2.875957,0.452435 4.756973,1.348175 5.64314,2.687267 0.358253,0.541354 0.42345,0.813604 0.460496,1.92292 0.04982,1.491834 -0.105311,1.913568 -1.072875,2.916716 -0.699487,0.725212 -1.113119,0.892008 -2.555492,1.030499 -1.647614,0.158198 -7.614931,-0.240003 -11.096939,-0.740503 -0.252551,-0.0363 -0.803571,-0.108791 -1.22449,-0.161089 -1.286984,-0.159906 -5.805413,-0.977706 -8.954081,-1.620618 -1.641582,-0.335189 -3.191327,-0.637813 -3.443878,-0.672501 -0.252551,-0.03469 -0.906888,-0.137809 -1.454081,-0.229159 -2.103562,-0.351176 -3.031914,-0.113701 -3.674296,0.939891 -0.521991,0.856135 -0.317183,2.259862 0.426315,2.92191 0.173072,0.154111 1.058447,0.58757 1.967498,0.96324 2.36497,0.977335 3.849357,2.183214 4.124031,3.350263 0.13982,0.594073 0.117167,1.474181 -0.04094,1.590528 -0.06822,0.0502 -0.145385,0.189756 -0.171476,0.310122 -0.125925,0.580924 -1.384725,1.818378 -1.615248,1.587855 -0.05363,-0.05363 -0.09752,-0.01377 -0.09752,0.0886 0,0.271432 -2.25092,1.296774 -2.917786,1.329116 -0.312988,0.01518 -0.640274,0.0716 -0.727301,0.125391 -0.08703,0.05379 -1.282716,0.07049 -2.657084,0.03712 -2.203339,-0.0535 -2.643656,-0.10903 -3.723339,-0.469552 -0.67347,-0.224881 -1.721315,-0.691389 -2.328545,-1.036683 -1.154863,-0.6567 -2.708452,-2.038373 -2.560739,-2.277376 0.04726,-0.07646 0.02403,-0.139026 -0.05161,-0.139026 -0.199858,0 -0.492785,-0.711912 -0.492785,-1.197635 0,-1.022173 0.919359,-1.557467 2.67493,-1.557467 1.021857,0 1.421561,0.09829 3.487059,0.857465 3.504452,1.288066 3.823236,1.368848 4.546612,1.152117 1.375834,-0.412209 1.993226,-2.345279 1.155127,-3.616725 -0.224414,-0.340447 -0.671055,-0.742088 -1.0061,-0.904726 -0.331389,-0.160866 -0.602526,-0.361759 -0.602526,-0.446429 0,-0.08467 -0.04265,-0.111297 -0.09478,-0.05917 -0.05213,0.05213 -0.571361,-0.145227 -1.153852,-0.438564 -0.582493,-0.293339 -1.693541,-0.752896 -2.468998,-1.02124 -1.337495,-0.462834 -1.527867,-0.488137 -3.705842,-0.492557 -1.993318,-0.004 -2.427046,0.0408 -3.290817,0.340281 -1.586176,0.549941 -3.165202,1.745583 -3.74654,2.83689 -0.166467,0.312493 -0.35588,0.56817 -0.420919,0.56817 -0.06504,0 -0.108134,0.05166 -0.09577,0.114795 0.05259,0.268422 -0.225685,1.415817 -0.343369,1.415817 -0.07078,0 -0.09399,0.09044 -0.05157,0.200984 0.07004,0.182529 -0.494624,0.848471 -0.639247,0.753899 -0.115136,-0.07529 -1.203343,0.437077 -1.96993,0.92751 -1.381933,0.884106 -2.248051,2.107034 -2.923387,4.127713 -0.218498,0.653774 -0.499481,1.290891 -0.624407,1.415817 -0.243454,0.243456 -1.434375,0.286053 -2.289555,0.08189 z"
     style="opacity:0.540984;fill:#ffffff;stroke-width:0.153061" /><path
     id="path874"
     d=""
     style="opacity:0.540984;fill:#ffffff;stroke-width:0.153061" /><path
     id="path876"
     d=""
     style="opacity:0.540984;fill:#ffffff;stroke-width:0.153061" /><path
     id="path878"
     d=""
     style="opacity:0.540984;fill:#ffffff;stroke-width:0.153061" /><path
     id="path880"
     d=""
     style="opacity:0.540984;fill:#ffffff;stroke-width:0.153061" /><path
     id="path882"
     d=""
     style="opacity:0.540984;fill:#ffffff;stroke-width:0.153061" /><path
     id="path892"
     d="m 35.969388,67.206304 c -1.124734,-0.539709 -2.978637,-2.181728 -3.56292,-3.155709 -0.810141,-1.350479 -1.077454,-2.747503 -0.701841,-3.667942 0.512635,-1.256213 0.979813,-1.20866 3.133002,0.318899 2.123741,1.506668 3.080967,2.050492 5.52152,3.136917 1.037162,0.461699 2.020679,0.974146 2.185595,1.138773 0.297715,0.297194 0.296084,0.303259 -0.229592,0.853749 -1.174107,1.229528 -2.477101,1.74168 -4.432499,1.742228 -0.897408,2.51e-4 -1.314994,-0.07983 -1.913265,-0.366915 z"
     style="opacity:0.540984;fill:#ffffff;stroke-width:0.153061" /><path
     id="path894"
     d="m 37.02575,67.405856 c -1.494639,-0.184558 -4.026143,-2.259922 -4.868896,-3.991594 -0.842902,-1.731978 -0.614405,-3.663742 0.445187,-3.763703 0.363556,-0.0343 0.921385,0.264608 2.678571,1.435279 1.3257,0.883206 3.211851,1.955018 4.684073,2.661739 1.355577,0.650728 2.517184,1.268085 2.581348,1.371904 0.173272,0.280361 -0.92633,1.331927 -1.881458,1.799266 -0.906124,0.443363 -2.387331,0.641644 -3.638825,0.487109 z"
     style="opacity:0.540984;fill:#ffffff;stroke-width:0.153061" /><path
     id="path896"
     d="m 36.445369,67.208349 c -1.462263,-0.547018 -3.552473,-2.45309 -4.240184,-3.866643 -0.470787,-0.967675 -0.590757,-2.637243 -0.229159,-3.18911 0.392229,-0.598618 0.940223,-0.492664 2.477659,0.479053 2.766544,1.748559 3.33564,2.074923 5.565823,3.191875 1.252608,0.62735 2.329186,1.224315 2.392395,1.326588 0.177095,0.286547 -1.334374,1.586256 -2.187168,1.880742 -1.050968,0.362919 -3.034661,0.456082 -3.779366,0.177495 z"
     style="opacity:0.540984;fill:#ffffff;stroke-width:0.153061" /><path
     id="path898"
     d="m 35.848942,66.883519 c -0.918567,-0.488973 -2.918239,-2.374243 -3.412021,-3.216817 -0.439754,-0.750385 -0.740757,-2.20592 -0.605395,-2.927461 0.05517,-0.294107 0.249667,-0.612622 0.457054,-0.748508 0.468331,-0.306862 0.836852,-0.157003 3.077505,1.251468 0.921102,0.579003 2.840919,1.672852 4.266258,2.430776 1.425341,0.757924 2.615836,1.453995 2.645547,1.546824 0.08146,0.254526 -1.012959,1.249957 -1.793196,1.631006 -0.550288,0.268746 -1.011914,0.345062 -2.295919,0.37956 -1.473726,0.03959 -1.667967,0.0108 -2.339833,-0.346848 z"
     style="opacity:0.540984;fill:#ffffff;stroke-width:0.153061" /><path
     id="path900"
     d="m 35.917211,66.879283 c -1.008069,-0.512279 -3.083035,-2.513877 -3.535746,-3.410725 -0.521659,-1.03344 -0.696692,-2.302961 -0.411593,-2.985298 0.379089,-0.907288 0.926649,-0.773395 3.537758,0.865074 0.674885,0.42349 2.365769,1.395402 3.75752,2.159804 1.391751,0.764401 2.665986,1.47147 2.831633,1.571262 0.288726,0.173941 0.27911,0.204264 -0.232626,0.733569 -0.910122,0.941369 -1.942448,1.342206 -3.649196,1.416931 -1.374774,0.06019 -1.538526,0.0352 -2.29775,-0.350617 z"
     style="opacity:0.540984;fill:#ffffff;stroke-width:0.153061" /><path
     id="path902"
     d="m 22.800043,60.404253 c -1.089559,-0.515453 -2.675865,-1.931052 -3.237121,-2.888764 -0.218644,-0.373087 -0.75287,-1.584992 -1.187171,-2.693123 -0.952437,-2.430172 -1.233546,-2.705019 -2.766648,-2.705019 -0.92627,0 -0.96961,0.01827 -1.558322,0.656948 -0.385693,0.418428 -0.671434,0.918582 -0.787004,1.377551 -0.170842,0.678473 -0.211299,0.720603 -0.691996,0.720603 -0.932687,0 -2.104737,-1.080441 -2.9056828,-2.678571 -0.9118778,-1.819474 -0.9416086,-2.007954 -0.9416086,-5.969388 0,-3.362405 0.030446,-3.790119 0.3595434,-5.051021 0.8510706,-3.260784 2.305899,-6.100002 3.799204,-7.414462 0.785547,-0.691466 1.221396,-0.85935 1.832675,-0.705929 l 0.404688,0.10157 -0.130344,1.254309 c -0.07169,0.689869 -0.133263,1.849892 -0.136831,2.577829 -0.0073,1.486625 0.131798,1.757971 1.17364,2.289705 1.013849,0.517448 2.627285,0.282034 3.007299,-0.43879 0.07721,-0.14645 0.740232,-1.988211 1.473388,-4.092803 2.065061,-5.927946 3.134859,-7.918252 5.386195,-10.020752 1.281014,-1.196326 3.710068,-2.758439 5.042402,-3.242744 1.234007,-0.448564 3.742791,-0.483262 4.956508,-0.06855 2.047552,0.699619 3.238373,1.486486 5.085617,3.360461 1.281462,1.300005 2.712845,3.240001 3.244339,4.397154 0.577041,1.256311 0.560722,3.46407 -0.03151,4.262456 -0.160585,0.216485 -0.544842,0.478307 -0.853901,0.581827 -1.15118,0.385585 -2.257742,-0.303939 -6.125495,-3.81694 -1.147444,-1.042199 -1.942214,-1.65189 -2.153342,-1.65189 -0.628835,0 -1.861822,0.453177 -2.178804,0.800807 -0.536435,0.588298 -0.70668,1.402284 -0.596821,2.853544 0.254106,3.356801 0.275873,4.493149 0.09373,4.893675 -1.044647,2.297184 -1.938846,3.323917 -3.983819,4.574284 -2.138424,1.307504 -2.201593,1.37746 -2.24685,2.488293 -0.04433,1.087907 0.159245,1.600071 0.875545,2.202797 0.413929,0.348299 0.615936,0.400886 1.539934,0.400886 0.657438,0 1.383687,-0.112534 1.902063,-0.294728 1.092318,-0.383919 2.750593,-1.493622 3.610881,-2.41637 0.759308,-0.814438 1.742679,-2.186861 1.566934,-2.186861 -0.06223,0 0.02056,-0.101126 0.183973,-0.224725 0.163411,-0.123597 0.246127,-0.226913 0.183814,-0.229591 -0.06231,-0.0027 0.0066,-0.144529 0.153062,-0.315224 0.146496,-0.170697 0.57978,-0.876692 0.962851,-1.568877 0.80798,-1.459973 0.859436,-1.476389 2.441263,-0.778866 0.945648,0.416995 1.10476,0.438711 3.214285,0.438711 H 45 l 0.966672,-0.524124 c 1.221214,-0.662137 2.446151,-1.879878 2.972706,-2.955242 0.432975,-0.884252 0.800936,-2.372243 0.950198,-3.84249 0.10721,-1.056049 0.383933,-1.65448 0.875428,-1.893175 1.728883,-0.839634 3.498823,-1.563772 7.474792,-3.058171 0.799745,-0.300591 1.764031,-0.668686 2.142857,-0.81799 0.924934,-0.364536 6.146243,-2.047178 7.958944,-2.564883 1.352107,-0.386161 1.658718,-0.415353 4.362485,-0.415353 2.702614,0 2.957314,0.02422 3.603569,0.342728 0.382474,0.1885 0.927755,0.582449 1.211735,0.875443 0.427427,0.440993 0.516328,0.648656 0.516328,1.206083 0,1.929367 -1.149461,3.417033 -3.504851,4.536076 -1.272138,0.604392 -4.958317,1.767279 -8.484945,2.676764 -0.883928,0.227958 -1.95153,0.513979 -2.372449,0.635604 -0.420918,0.121625 -2.933984,0.807243 -5.584591,1.523597 -8.01513,2.166169 -8.934149,2.502645 -9.424285,3.450461 -0.384705,0.74394 -0.250027,2.293785 0.245408,2.824067 0.890091,0.952697 1.581047,1.008938 6.19204,0.504003 4.074151,-0.446148 18.198851,-0.600458 20.571067,-0.224735 2.545502,0.403168 4.392683,1.267953 5.328196,2.494474 0.355095,0.465554 0.432952,0.737856 0.480567,1.680757 0.07973,1.578974 -0.04748,2.057413 -0.763277,2.870601 -0.94775,1.076701 -1.300661,1.207454 -3.465698,1.284038 -4.795872,0.169647 -11.019719,-0.618216 -22.150855,-2.804025 -3.536546,-0.694468 -5.316998,-0.829521 -6.091382,-0.462052 -0.761145,0.361186 -1.154818,1.040933 -1.154982,1.994279 -3.06e-4,1.430865 0.222153,1.669485 2.644075,2.836906 2.953059,1.42344 3.917793,2.301202 4.154216,3.779714 0.10939,0.684084 -0.390176,1.861313 -1.029123,2.425137 -0.559164,0.49342 -1.805966,1.232792 -2.731988,1.620109 -0.784573,0.328154 -1.055273,0.352324 -3.979592,0.355324 -3.506218,0.0036 -3.826642,-0.05873 -5.969387,-1.161137 -2.124229,-1.092877 -3.551021,-2.592961 -3.551021,-3.733428 0,-1.044072 0.754748,-1.485138 2.539855,-1.484259 1.140409,6.12e-4 1.451203,0.07775 3.842798,0.954357 2.069034,0.758378 2.795928,0.957347 3.548567,0.971328 0.849891,0.01579 0.994274,-0.02816 1.41422,-0.430444 0.257232,-0.246413 0.437253,-0.478464 0.400048,-0.515671 -0.0372,-0.0372 0.03239,-0.167681 0.154658,-0.289948 0.141058,-0.141058 0.222303,-0.533354 0.222303,-1.073405 0,-1.489345 -0.6431,-2.124274 -3.37995,-3.337004 -2.661973,-1.179549 -3.261282,-1.334617 -5.469006,-1.415063 -3.051577,-0.111196 -4.34878,0.234966 -6.275651,1.67468 -0.881659,0.658755 -1.813264,1.964608 -1.97053,2.762136 -0.135421,0.686754 -0.449203,1.411967 -0.689386,1.593319 -0.110094,0.08312 -0.486039,0.258819 -0.835433,0.39043 -1.046625,0.394247 -2.336564,1.343418 -2.975106,2.189163 -0.330277,0.437447 -0.874652,1.469133 -1.209724,2.292636 -0.335073,0.823502 -0.687514,1.591614 -0.783204,1.706913 -0.115287,0.138911 -0.516216,0.209594 -1.188404,0.209515 -0.797977,-9.5e-5 -1.21167,-0.09344 -1.938869,-0.437463 z"
     style="opacity:0.540984;fill:#ffffff;stroke-width:0.153061" /><path
     id="path904"
     d="m 23.629564,60.638472 c -0.972628,-0.272882 -2.077493,-1.013328 -3.079382,-2.063705 -0.939211,-0.984664 -1.121738,-1.310995 -2.181829,-3.900788 -0.942559,-2.302661 -1.210685,-2.556632 -2.699125,-2.556632 -1.036986,0 -1.082679,0.0164 -1.599136,0.57398 -0.292406,0.315688 -0.649645,0.9017 -0.793865,1.302246 -0.306532,0.851346 -0.595095,0.991296 -1.327419,0.643786 -0.825269,-0.391616 -1.730442,-1.489478 -2.4320359,-2.949757 L 8.8775508,50.357143 8.8253054,46.639186 c -0.05751,-4.092612 0.035789,-4.834612 0.9278344,-7.378982 0.7725402,-2.203506 1.7537332,-3.931459 2.8882382,-5.086398 0.97389,-0.991432 1.049066,-1.036051 1.745569,-1.036051 0.717861,0 0.726657,0.006 0.640969,0.434401 -0.04778,0.238921 -0.133924,1.289303 -0.191422,2.334184 -0.130908,2.378927 0.0162,2.837979 1.073454,3.349788 0.97265,0.470852 2.373535,0.394075 2.905537,-0.159242 0.221858,-0.230746 0.779062,-1.565917 1.464885,-3.510151 1.479189,-4.193342 1.86052,-5.135444 2.880861,-7.117347 0.745986,-1.448997 1.06966,-1.887815 2.322174,-3.14827 1.543416,-1.553199 2.984484,-2.582964 4.884318,-3.490255 1.152799,-0.550534 1.180154,-0.555345 3.152685,-0.55448 1.804664,7.92e-4 2.079211,0.03847 2.950835,0.404907 0.528573,0.222218 1.346951,0.63509 1.818622,0.917494 1.787138,1.070015 4.929572,4.578082 5.807167,6.482849 0.451863,0.980743 0.598675,2.513887 0.336597,3.515049 -0.152662,0.583179 -0.323545,0.844364 -0.734649,1.122866 -1.122949,0.760743 -2.162243,0.211562 -6.04502,-3.194295 l -2.295022,-2.013124 -0.742711,0.08796 c -0.873778,0.103486 -1.55096,0.465825 -1.998187,1.069167 -0.308755,0.416534 -0.320057,0.576665 -0.27238,3.858839 l 0.04974,3.424272 -0.547675,1.039121 c -0.822711,1.560953 -1.619468,2.380722 -3.543561,3.645904 -0.958534,0.630282 -1.855303,1.317683 -1.992819,1.527561 -0.34635,0.528597 -0.24268,2.147338 0.173299,2.705935 0.516185,0.69316 1.01265,0.889638 2.237949,0.885678 1.293484,-0.0042 2.290092,-0.350732 3.700105,-1.286644 1.618525,-1.074316 2.826535,-2.578666 4.776149,-5.947802 0.349961,-0.604769 0.7305,-1.071098 0.910407,-1.115651 0.170011,-0.0421 0.756815,0.112775 1.304009,0.344175 0.900115,0.380643 1.208021,0.426254 3.231942,0.478766 2.524065,0.06549 2.781004,-0.0069 4.393815,-1.238227 1.629579,-1.244107 2.415297,-2.818525 2.8497,-5.710212 0.11636,-0.774576 0.289171,-1.553326 0.384021,-1.730557 0.292906,-0.5473 2.677349,-1.60004 8.827064,-3.897179 2.929543,-1.09429 8.733395,-2.980366 10.160397,-3.301822 0.913874,-0.205865 5.888307,-0.204701 6.63107,0.0016 0.340736,0.09462 0.900152,0.466106 1.339286,0.889375 0.62156,0.599105 0.754134,0.821129 0.754134,1.262961 0,1.577353 -0.974908,3.06755 -2.653844,4.056537 -1.168225,0.688148 -5.181329,2.023296 -9.820646,3.2673 -6.556685,1.758133 -12.391615,3.383211 -13.852041,3.857912 -2.753138,0.894886 -3.214285,1.291143 -3.214285,2.761986 0,1.042666 0.282737,1.74015 0.885165,2.183613 0.572449,0.421394 2.205917,0.470741 5.390345,0.162837 3.693343,-0.357108 13.736564,-0.5847 17.908163,-0.405819 2.700594,0.115805 3.686308,0.2167 4.567139,0.467483 1.961865,0.558568 3.426401,1.48455 3.950299,2.497658 0.336889,0.651473 0.350057,2.792311 0.02096,3.408229 -0.196762,0.368249 -1.495612,1.724561 -1.685492,1.760057 -0.931244,0.174094 -3.965534,0.243025 -5.858011,0.133081 -4.385868,-0.254799 -8.657457,-0.869418 -17.002633,-2.446429 -4.738101,-0.895372 -6.919121,-1.09161 -7.691752,-0.692067 -0.727399,0.376153 -1.095286,1.074539 -1.095286,2.079256 0,1.122857 0.345907,1.644099 1.472409,2.218742 3.561543,1.816789 4.623721,2.56449 5.049361,3.554403 0.699283,1.626326 -0.279174,3.161121 -2.825953,4.432752 l -1.171452,0.584919 -2.926443,0.04972 c -1.620986,0.02754 -3.327963,-0.02204 -3.826531,-0.111149 -1.098764,-0.196374 -3.390294,-1.322178 -4.415288,-2.169184 -0.970536,-0.802004 -1.606727,-1.672252 -1.716354,-2.347807 -0.130596,-0.804773 0.522133,-1.402092 1.691867,-1.548241 1.219982,-0.152426 1.811625,-0.03337 4.656967,0.937145 3.740448,1.275822 4.610109,1.259938 5.373395,-0.09815 0.384459,-0.684054 0.428636,-1.941992 0.09112,-2.594677 -0.426026,-0.823845 -2.020047,-1.747418 -4.89812,-2.837963 -1.471119,-0.557431 -1.62,-0.582659 -3.830313,-0.649049 -2.732377,-0.08207 -3.739967,0.115987 -5.300439,1.041892 -1.603354,0.951349 -2.325855,1.884493 -3.137289,4.051952 -0.26824,0.716507 -0.363295,0.805417 -1.490729,1.394356 -2.171903,1.134538 -3.064175,2.167712 -4.149375,4.804624 -0.225194,0.547193 -0.491158,1.080177 -0.591034,1.184407 -0.277215,0.289306 -1.468492,0.36463 -2.259012,0.14284 z"
     style="opacity:0.540984;fill:#ffffff;stroke-width:0.153061" /><path
     id="path906"
     d="m 22.75025,60.215752 c -1.150522,-0.574922 -2.769384,-2.128039 -3.281425,-3.148162 -0.204583,-0.407582 -0.697089,-1.514863 -1.094459,-2.460623 -0.926678,-2.205545 -1.232099,-2.48962 -2.676693,-2.48962 -1.287737,0 -1.610864,0.222842 -2.324603,1.603151 -0.430699,0.832933 -0.580548,0.997851 -0.907109,0.998323 -0.830281,0.0012 -1.951418,-1.183501 -2.899696,-3.064103 L 8.9856789,50.503313 8.8790878,47.522065 c -0.1353123,-3.784551 0.044494,-5.608202 0.7653567,-7.762468 0.8341585,-2.492847 1.7893645,-4.211865 3.0688165,-5.522739 1.031065,-1.056386 1.127464,-1.117499 1.690086,-1.071429 0.3616,0.02961 0.582585,0.121209 0.560944,0.232515 -0.01964,0.101013 -0.08032,1.134176 -0.134837,2.295919 -0.121953,2.598641 0.02654,3.105696 1.044887,3.567884 0.746849,0.338966 1.998711,0.393043 2.569536,0.110997 0.505804,-0.24992 0.958141,-1.225975 2.286567,-4.933969 0.603192,-1.683673 1.578069,-4.047259 2.166393,-5.252413 0.955292,-1.956875 1.203527,-2.330609 2.32137,-3.494979 1.609391,-1.67638 2.878862,-2.629877 4.778785,-3.589333 l 1.527605,-0.771437 2.161365,0.04898 2.161366,0.04898 1.438581,0.714879 c 1.668069,0.82892 3.363799,2.305208 5.063599,4.408328 1.530881,1.894121 2.02472,2.970447 2.092477,4.560573 0.08111,1.903449 -0.442216,2.79071 -1.646016,2.79071 -0.983484,0 -2.135613,-0.790507 -5.62277,-3.857934 -1.534396,-1.34971 -1.763924,-1.499209 -2.301752,-1.499209 -0.74199,0 -1.842615,0.547023 -2.260446,1.123468 -0.299385,0.413036 -0.312701,0.604462 -0.267283,3.842183 l 0.0478,3.407489 -0.557978,1.015115 c -0.802878,1.460659 -1.736769,2.421334 -3.61889,3.722681 -0.91085,0.629784 -1.759954,1.29335 -1.8869,1.47459 -0.295143,0.421376 -0.300882,1.787213 -0.01042,2.482365 0.121211,0.290096 0.448379,0.670763 0.727041,0.845927 0.437429,0.27496 0.694891,0.311017 1.884211,0.263868 1.238061,-0.04908 1.486044,-0.111885 2.44898,-0.620213 2.133992,-1.126525 3.244961,-2.320832 5.420598,-5.827214 1.245064,-2.006617 1.264809,-2.017448 2.651739,-1.454376 0.660903,0.268317 1.222592,0.339806 3.134073,0.398886 2.660992,0.08225 2.901294,0.01521 4.520469,-1.260963 1.568074,-1.235901 2.285135,-2.654452 2.785619,-5.510744 0.147508,-0.841837 0.371449,-1.693607 0.497647,-1.892822 0.48238,-0.761483 5.958919,-2.979649 13.744957,-5.56713 4.037962,-1.341908 4.785694,-1.543905 6.19898,-1.674631 1.951632,-0.180523 5.411264,-0.03159 5.969282,0.256977 0.219251,0.113379 0.694719,0.527354 1.056597,0.919945 0.632878,0.686592 0.653907,0.740829 0.551636,1.422816 -0.145601,0.970943 -0.689028,1.973495 -1.480445,2.731234 -1.468304,1.405819 -3.402081,2.079507 -15.357274,5.350159 -12.537352,3.429917 -12.627824,3.469156 -12.627314,5.476644 3.06e-4,1.16397 0.34982,1.910362 1.071191,2.287479 0.477844,0.249805 0.792003,0.269822 2.908164,0.185291 1.304846,-0.05212 3.16454,-0.160409 4.132653,-0.240638 0.968112,-0.08023 4.928571,-0.190107 8.80102,-0.244174 9.342773,-0.130445 11.47521,0.04612 13.622449,1.127957 1.943461,0.979167 2.459045,1.825059 2.342239,3.8428 -0.06666,1.151492 -0.0991,1.241129 -0.712509,1.968594 -1.009377,1.197062 -0.990958,1.19252 -4.829103,1.191147 -4.728234,-0.0017 -7.899304,-0.381242 -17.2343,-2.062799 -6.227518,-1.121792 -6.932231,-1.226942 -8.218095,-1.226236 -1.725078,9.18e-4 -2.496751,0.720176 -2.495619,2.32601 9.19e-4,1.237725 0.311853,1.609228 2.158808,2.578947 3.249115,1.705904 4.271086,2.565683 4.518171,3.801107 0.239668,1.198341 -0.866372,2.60839 -2.903288,3.701288 l -1.200228,0.643977 -3.391609,0.0023 c -3.097025,0.0021 -3.470504,-0.02639 -4.29993,-0.328435 -2.847934,-1.0371 -5.137604,-2.960261 -5.137604,-4.315222 0,-1.030279 0.808838,-1.470268 2.60204,-1.415447 0.547563,0.01674 1.778165,0.328045 3.520409,0.890559 3.081884,0.995037 4.001485,1.146695 4.715213,0.777612 0.658364,-0.340452 1.101257,-1.252731 1.100541,-2.266905 -0.0012,-1.677092 -0.895638,-2.386086 -5.126979,-4.063931 -1.317256,-0.522329 -1.47827,-0.549257 -3.678641,-0.61524 -1.447892,-0.04342 -2.623767,-0.002 -3.171349,0.111661 -2.280182,0.473364 -4.28963,2.117275 -5.154715,4.217024 -0.277465,0.673469 -0.571554,1.307654 -0.653527,1.409299 -0.08197,0.101645 -0.645589,0.457328 -1.252476,0.790406 -1.913432,1.050154 -2.589183,1.787436 -3.653632,3.986313 -0.512855,1.059424 -1.006652,1.97683 -1.097327,2.038679 -0.09068,0.06185 -0.584346,0.113507 -1.097049,0.114796 -0.738623,0.0019 -1.128742,-0.09588 -1.878789,-0.47068 z"
     style="opacity:0.540984;fill:#ffffff;stroke-width:0.153061" /><path
     id="path908"
     d="m 22.89805,60.225156 c -0.689822,-0.326339 -1.325511,-0.812919 -2.149476,-1.645289 -1.111694,-1.123033 -1.215035,-1.288651 -2.074551,-3.324765 -0.583981,-1.383398 -1.077997,-2.319161 -1.393892,-2.640306 -0.459144,-0.466777 -0.555049,-0.497449 -1.555408,-0.497449 -1.302309,0 -1.613017,0.205085 -2.319844,1.531226 -0.275115,0.51617 -0.598238,0.976108 -0.718049,1.022083 -0.701703,0.26927 -2.068303,-1.047159 -3.0638532,-2.951371 L 8.9908516,50.510204 8.9055369,47.602041 C 8.7863551,43.539438 8.9452248,42.006958 9.7303212,39.646058 10.957222,35.956582 13.264461,32.880264 14.56067,33.205592 l 0.369536,0.09275 -0.09997,2.253892 c -0.12413,2.7985 0.0084,3.246131 1.104792,3.731111 0.547873,0.24235 0.931491,0.301017 1.635403,0.250099 1.202468,-0.08698 1.380355,-0.302364 2.321877,-2.811341 3.014536,-8.033162 3.63972,-9.282122 5.668145,-11.323536 1.50849,-1.518149 2.614068,-2.327125 4.60003,-3.365945 l 1.301092,-0.680578 1.947786,0.005 c 1.4517,0.0037 2.142702,0.07325 2.713091,0.272995 1.462071,0.511995 3.003289,1.562323 4.51627,3.077803 3.021244,3.026232 4.110665,5.229919 3.755694,7.59703 -0.141464,0.943357 -0.754201,1.598195 -1.495443,1.598195 -1.040816,0 -1.696802,-0.457259 -6.532561,-4.553571 -1.103226,-0.93453 -1.65638,-1.026348 -2.766343,-0.459184 -1.288526,0.658405 -1.310518,0.738225 -1.259077,4.56977 l 0.04507,3.357015 -0.560529,1.06669 c -0.715586,1.36176 -1.732506,2.408249 -3.703387,3.811059 -0.864453,0.615293 -1.673764,1.264382 -1.798469,1.442422 -0.291064,0.415553 -0.294582,1.786719 -0.0064,2.476547 0.121211,0.290096 0.448379,0.670763 0.727041,0.845927 0.437429,0.27496 0.69489,0.311017 1.884211,0.263868 1.255941,-0.04979 1.478816,-0.108012 2.524638,-0.659516 1.769185,-0.93296 3.006522,-2.211418 4.851935,-5.013182 0.876128,-1.330167 1.701361,-2.460082 1.833849,-2.510922 0.132489,-0.05084 0.662814,0.0669 1.178498,0.261642 0.784907,0.296413 1.31455,0.365179 3.252042,0.422229 2.64378,0.07784 3.011628,-0.0187 4.461098,-1.170805 1.612743,-1.281889 2.256912,-2.530386 2.877349,-5.576741 0.202798,-0.995743 0.408714,-1.87515 0.457593,-1.954236 0.233894,-0.378452 3.16149,-1.690045 6.955854,-3.116295 3.53386,-1.328331 9.553784,-3.347437 11.173469,-3.747626 1.442829,-0.356492 3.870876,-0.487265 6.019012,-0.324181 1.512664,0.11484 1.705702,0.165155 2.219388,0.57848 0.899172,0.723498 1.272606,1.373742 1.159461,2.018918 -0.285084,1.625605 -1.460687,3.014233 -3.288552,3.884453 -1.524735,0.725903 -4.526374,1.670709 -10.854207,3.416504 -12.911034,3.562045 -14.209607,3.982923 -14.929867,4.838906 -0.310794,0.369357 -0.376214,0.611547 -0.376018,1.392043 3.06e-4,1.173337 0.347726,1.918154 1.071191,2.296407 0.478915,0.250394 0.795367,0.270107 2.984694,0.185932 1.346939,-0.05179 3.378827,-0.157325 4.515306,-0.234531 1.13648,-0.07721 4.890306,-0.187411 8.341837,-0.244901 9.288487,-0.154711 12.130629,0.134671 14.158163,1.44156 1.397038,0.90049 1.825806,1.658747 1.83223,3.240217 0.0047,1.167796 -0.243613,1.737472 -1.117989,2.56442 l -0.813492,0.769367 -1.748844,0.108617 C 75.462971,49.727262 71.089055,49.463369 67.5,48.976941 64.928931,48.62848 63.331529,48.358906 55.637755,46.975082 51.898434,46.302519 49.642177,46.1484 48.929633,46.516872 c -0.728912,0.376935 -1.096855,1.074703 -1.096855,2.080067 0,1.266675 0.290075,1.613094 2.231741,2.665214 3.001999,1.626679 3.981199,2.420087 4.344174,3.519915 0.4077,1.23534 -0.463111,2.504069 -2.583633,3.764225 l -1.287185,0.764932 -3.381183,-9.19e-4 c -3.659113,-9.18e-4 -3.999687,-0.05215 -5.699392,-0.857355 -3.093977,-1.465707 -4.707412,-3.721213 -3.371587,-4.71332 0.369288,-0.274268 0.63829,-0.319557 1.836735,-0.309238 1.252854,0.01079 1.676098,0.09865 3.929593,0.815777 2.945456,0.937324 3.859876,1.081257 4.562152,0.718096 1.011072,-0.522845 1.456875,-2.491255 0.805976,-3.55872 -0.521703,-0.855583 -2.253614,-1.843223 -5.065965,-2.888917 -1.031097,-0.383385 -1.388549,-0.432378 -3.621905,-0.496428 -2.199273,-0.06307 -2.595845,-0.03524 -3.526763,0.247518 -1.274362,0.387077 -2.68024,1.27028 -3.469202,2.17943 -0.322284,0.37138 -0.876594,1.295134 -1.231798,2.052787 l -0.645828,1.377551 -1.135476,0.612245 c -1.755093,0.946341 -2.696819,1.980453 -3.790671,4.162549 -0.508386,1.014167 -1.037204,1.887249 -1.175152,1.940184 -0.61306,0.235253 -1.704111,0.08453 -2.659359,-0.367373 z"
     style="opacity:0.540984;fill:#ffffff;stroke-width:0.153061" /></svg>
